<?xml version="1.0" encoding="UTF-8" standalone="no"?>
<!-- Created with Inkscape (http://www.inkscape.org/) -->

<svg
   xmlns:dc="http://purl.org/dc/elements/1.1/"
   xmlns:cc="http://creativecommons.org/ns#"
   xmlns:rdf="http://www.w3.org/1999/02/22-rdf-syntax-ns#"
   xmlns:svg="http://www.w3.org/2000/svg"
   xmlns="http://www.w3.org/2000/svg"
   xmlns:xlink="http://www.w3.org/1999/xlink"
   xmlns:sodipodi="http://sodipodi.sourceforge.net/DTD/sodipodi-0.dtd"
   xmlns:inkscape="http://www.inkscape.org/namespaces/inkscape"
   width="210mm"
   height="297mm"
   viewBox="0 0 210 297"
   version="1.1"
   id="svg877"
   inkscape:version="0.92.4 (5da689c313, 2019-01-14)"
   sodipodi:docname="tree3.svg">
  <defs
     id="defs871">
    <clipPath
       clipPathUnits="userSpaceOnUse"
       id="clipPath274">
      <path
         d="M 0,5466.021 H 4842.449 V 0 H 0 Z"
         id="path272"
         inkscape:connector-curvature="0" />
    </clipPath>
    <clipPath
       clipPathUnits="userSpaceOnUse"
       id="clipPath290">
      <path
         d="M 1095.41,938.148 H 3782.98 V 535.077 H 1095.41 Z"
         id="path288"
         inkscape:connector-curvature="0" />
    </clipPath>
    <clipPath
       clipPathUnits="userSpaceOnUse"
       id="clipPath310">
      <path
         d="M 1457.21,1196.28 H 2392.4 V 720.102 h -935.19 z"
         id="path308"
         inkscape:connector-curvature="0" />
    </clipPath>
    <clipPath
       clipPathUnits="userSpaceOnUse"
       id="clipPath326">
      <path
         d="m 2110.68,1221.34 h 108.84 v -111.93 h -108.84 z"
         id="path324"
         inkscape:connector-curvature="0" />
    </clipPath>
    <clipPath
       clipPathUnits="userSpaceOnUse"
       id="clipPath342">
      <path
         d="m 2129.96,1221.34 h 73.69 v -110.45 h -73.69 z"
         id="path340"
         inkscape:connector-curvature="0" />
    </clipPath>
    <clipPath
       clipPathUnits="userSpaceOnUse"
       id="clipPath358">
      <path
         d="M 1457.96,1178.04 H 1804.5 V 812.883 h -346.54 z"
         id="path356"
         inkscape:connector-curvature="0" />
    </clipPath>
    <clipPath
       clipPathUnits="userSpaceOnUse"
       id="clipPath374">
      <path
         d="m 1464.13,1171.95 h 302.54 V 862.719 h -302.54 z"
         id="path372"
         inkscape:connector-curvature="0" />
    </clipPath>
    <clipPath
       clipPathUnits="userSpaceOnUse"
       id="clipPath390">
      <path
         d="m 2117.62,1035.41 h 120.7 V 886.031 h -120.7 z"
         id="path388"
         inkscape:connector-curvature="0" />
    </clipPath>
    <clipPath
       clipPathUnits="userSpaceOnUse"
       id="clipPath410">
      <path
         d="m 3186.59,942.991 h 11.38 v -6.64 h -11.38 z"
         id="path408"
         inkscape:connector-curvature="0" />
    </clipPath>
    <clipPath
       clipPathUnits="userSpaceOnUse"
       id="clipPath426">
      <path
         d="m 2852.85,1070.48 h 321.19 V 949.525 h -321.19 z"
         id="path424"
         inkscape:connector-curvature="0" />
    </clipPath>
    <clipPath
       clipPathUnits="userSpaceOnUse"
       id="clipPath442">
      <path
         d="m 2901.9,1076.02 h 122.77 v -49.48 H 2901.9 Z"
         id="path440"
         inkscape:connector-curvature="0" />
    </clipPath>
    <clipPath
       clipPathUnits="userSpaceOnUse"
       id="clipPath458">
      <path
         d="m 2677.05,990.255 h 509.43 V 717.024 h -509.43 z"
         id="path456"
         inkscape:connector-curvature="0" />
    </clipPath>
    <clipPath
       clipPathUnits="userSpaceOnUse"
       id="clipPath474">
      <path
         d="m 2680.97,990.636 h 420.27 V 744.005 h -420.27 z"
         id="path472"
         inkscape:connector-curvature="0" />
    </clipPath>
    <clipPath
       clipPathUnits="userSpaceOnUse"
       id="clipPath490">
      <path
         d="m 2867.04,763.369 h 469.48 V 609.511 h -469.48 z"
         id="path488"
         inkscape:connector-curvature="0" />
    </clipPath>
    <clipPath
       clipPathUnits="userSpaceOnUse"
       id="clipPath514">
      <path
         d="M 546.085,4546.83 H 1140.43 V 3984.5 H 546.085 Z"
         id="path512"
         inkscape:connector-curvature="0" />
    </clipPath>
    <clipPath
       clipPathUnits="userSpaceOnUse"
       id="clipPath530">
      <path
         d="m 1311.93,4742.57 h 309.59 v -276.78 h -309.59 z"
         id="path528"
         inkscape:connector-curvature="0" />
    </clipPath>
    <clipPath
       clipPathUnits="userSpaceOnUse"
       id="clipPath550">
      <path
         d="m 3972.63,3928.08 h 345.53 v -334.74 h -345.53 z"
         id="path548"
         inkscape:connector-curvature="0" />
    </clipPath>
    <clipPath
       clipPathUnits="userSpaceOnUse"
       id="clipPath566">
      <path
         d="m 3465.63,4759.7 h 550.84 v -473.65 h -550.84 z"
         id="path564"
         inkscape:connector-curvature="0" />
    </clipPath>
    <clipPath
       clipPathUnits="userSpaceOnUse"
       id="clipPath262">
      <path
         d="m 1667.017,3623.604 c 0,-80.083 12.766,-246.172 71.06,-262.58 v 0 c 98.763,-27.798 366.761,-76.591 437.692,-76.593 v 0 c 98.467,0 169.507,130.024 167.759,393.877 v 0 c -1.823,275.35 -103.242,435.818 -293.58,435.818 v 0 c -266.229,0 -382.931,-226.662 -382.931,-490.522"
         id="path260"
         inkscape:connector-curvature="0" />
    </clipPath>
    <clipPath
       clipPathUnits="userSpaceOnUse"
       id="clipPath18">
      <path
         d="M 0,5466.021 H 4842.449 V 0 H 0 Z"
         id="path16"
         inkscape:connector-curvature="0" />
    </clipPath>
    <clipPath
       clipPathUnits="userSpaceOnUse"
       id="clipPath38">
      <path
         d="m 3034.13,1717.83 h 487.33 v -490.18 h -487.33 z"
         id="path36"
         inkscape:connector-curvature="0" />
    </clipPath>
    <clipPath
       clipPathUnits="userSpaceOnUse"
       id="clipPath54">
      <path
         d="m 2872.07,1566.13 h 26.23 v -147.16 h -26.23 z"
         id="path52"
         inkscape:connector-curvature="0" />
    </clipPath>
    <clipPath
       clipPathUnits="userSpaceOnUse"
       id="clipPath70">
      <path
         d="m 2925.56,1557.13 h 67.54 v -203.47 h -67.54 z"
         id="path68"
         inkscape:connector-curvature="0" />
    </clipPath>
    <clipPath
       clipPathUnits="userSpaceOnUse"
       id="clipPath86">
      <path
         d="m 3071.3,1232.57 h 110.19 v -73.53 H 3071.3 Z"
         id="path84"
         inkscape:connector-curvature="0" />
    </clipPath>
    <clipPath
       clipPathUnits="userSpaceOnUse"
       id="clipPath102">
      <path
         d="m 3232.49,1213.68 h 100.89 v -68.35 h -100.89 z"
         id="path100"
         inkscape:connector-curvature="0" />
    </clipPath>
    <clipPath
       clipPathUnits="userSpaceOnUse"
       id="clipPath118">
      <path
         d="m 2880.85,1645.54 h 137.39 v -272.07 h -137.39 z"
         id="path116"
         inkscape:connector-curvature="0" />
    </clipPath>
    <clipPath
       clipPathUnits="userSpaceOnUse"
       id="clipPath146">
      <path
         d="m 1609.1,1746.06 h 508.44 V 1214.63 H 1609.1 Z"
         id="path144"
         inkscape:connector-curvature="0" />
    </clipPath>
    <clipPath
       clipPathUnits="userSpaceOnUse"
       id="clipPath162">
      <path
         d="m 2218.63,1631.25 h 42.72 v -144.78 h -42.72 z"
         id="path160"
         inkscape:connector-curvature="0" />
    </clipPath>
    <clipPath
       clipPathUnits="userSpaceOnUse"
       id="clipPath178">
      <path
         d="m 2142.8,1612 h 62.53 v -205.49 h -62.53 z"
         id="path176"
         inkscape:connector-curvature="0" />
    </clipPath>
    <clipPath
       clipPathUnits="userSpaceOnUse"
       id="clipPath194">
      <path
         d="m 1994.83,1268.29 h 117.97 v -67 h -117.97 z"
         id="path192"
         inkscape:connector-curvature="0" />
    </clipPath>
    <clipPath
       clipPathUnits="userSpaceOnUse"
       id="clipPath210">
      <path
         d="m 1847.39,1220.15 h 108.46 v -58.29 h -108.46 z"
         id="path208"
         inkscape:connector-curvature="0" />
    </clipPath>
    <clipPath
       clipPathUnits="userSpaceOnUse"
       id="clipPath226">
      <path
         d="m 2098.3,1697.89 h 156 V 1430.2 h -156 z"
         id="path224"
         inkscape:connector-curvature="0" />
    </clipPath>
    <clipPath
       clipPathUnits="userSpaceOnUse"
       id="clipPath356">
      <path
         d="M 0,1080 H 1920 V 0 H 0 Z"
         id="path354"
         inkscape:connector-curvature="0" />
    </clipPath>
    <clipPath
       clipPathUnits="userSpaceOnUse"
       id="clipPath78">
      <path
         d="M 0,5774.084 H 5583.782 V 0 H 0 Z"
         id="path76"
         inkscape:connector-curvature="0" />
    </clipPath>
    <clipPath
       clipPathUnits="userSpaceOnUse"
       id="clipPath58">
      <path
         d="m 2744.004,3357.443 c -1.568,-236.644 62.148,-353.261 150.461,-353.261 v 0 c 63.617,0 303.978,43.763 392.556,68.693 v 0 c 52.284,14.718 63.733,163.68 63.733,235.505 v 0 c 0,236.65 -104.669,439.941 -343.443,439.941 v 0 c -170.711,0 -261.671,-143.923 -263.307,-390.878"
         id="path56"
         inkscape:connector-curvature="0" />
    </clipPath>
    <clipPath
       clipPathUnits="userSpaceOnUse"
       id="clipPath18-7">
      <path
         d="M 0,5774.084 H 5583.782 V 0 H 0 Z"
         id="path16-9"
         inkscape:connector-curvature="0" />
    </clipPath>
    <linearGradient
       gradientUnits="userSpaceOnUse"
       gradientTransform="matrix(0.67731686,0,0,1.4764139,-0.99639477,-0.9930113)"
       id="s"
       x1="456.05312"
       x2="367.06593"
       y1="139.27071"
       y2="42.848956"
       xlink:href="#n" />
    <linearGradient
       id="n">
      <stop
         stop-color="#ececec"
         stop-opacity=".015"
         offset="0"
         id="stop16" />
      <stop
         stop-color="#ececec"
         offset=".47036"
         id="stop18" />
      <stop
         stop-color="#ececec"
         stop-opacity="0"
         offset="1"
         id="stop20" />
    </linearGradient>
    <filter
       style="color-interpolation-filters:sRGB"
       id="k">
      <feGaussianBlur
         stdDeviation="0.892625"
         id="feGaussianBlur11" />
    </filter>
    <linearGradient
       gradientUnits="userSpaceOnUse"
       gradientTransform="matrix(0.67731452,0,0,1.476419,-0.99639477,-0.9930113)"
       id="p"
       x1="26.147665"
       x2="115.13376"
       y1="139.27023"
       y2="42.848807"
       xlink:href="#n" />
    <filter
       style="color-interpolation-filters:sRGB"
       id="filter949">
      <feGaussianBlur
         stdDeviation="0.892625"
         id="feGaussianBlur947" />
    </filter>
  </defs>
  <sodipodi:namedview
     id="base"
     pagecolor="#ffffff"
     bordercolor="#666666"
     borderopacity="1.0"
     inkscape:pageopacity="0.0"
     inkscape:pageshadow="2"
     inkscape:zoom="0.64725259"
     inkscape:cx="778.65458"
     inkscape:cy="729.01513"
     inkscape:document-units="mm"
     inkscape:current-layer="layer1"
     showgrid="false"
     showguides="true"
     inkscape:guide-bbox="true"
     inkscape:window-width="1920"
     inkscape:window-height="1001"
     inkscape:window-x="-9"
     inkscape:window-y="-9"
     inkscape:window-maximized="1">
    <sodipodi:guide
       position="158.46514,253.35726"
       orientation="0,1"
       id="guide1427"
       inkscape:locked="false" />
    <sodipodi:guide
       position="189.78421,43.472741"
       orientation="0,1"
       id="guide1429"
       inkscape:locked="false" />
  </sodipodi:namedview>
  <metadata
     id="metadata874">
    <rdf:RDF>
      <cc:Work
         rdf:about="">
        <dc:format>image/svg+xml</dc:format>
        <dc:type
           rdf:resource="http://purl.org/dc/dcmitype/StillImage" />
        <dc:title></dc:title>
      </cc:Work>
    </rdf:RDF>
  </metadata>
  <g
     inkscape:label="Layer 1"
     inkscape:groupmode="layer"
     id="layer1">
    <path
       style="fill:#000000;stroke-width:0.05266144"
       d="m 103.21029,242.94574 c -1.49163,-0.0192 -3.326034,-0.0383 -4.076445,-0.0424 l -1.364382,-0.008 0.03471,-1.0664 c 0.0191,-0.58652 0.06959,-2.08539 0.112212,-3.33084 0.147397,-4.30736 0.236964,-8.49363 0.370106,-17.29928 0.0436,-2.88189 0.103063,-6.42469 0.132209,-7.87288 0.02911,-1.44819 0.07583,-3.77056 0.103747,-5.16083 0.02793,-1.39026 0.0656,-3.19128 0.08374,-4.00226 0.04124,-1.84297 0.02332,-1.94687 -0.525598,-3.05437 -0.628863,-1.26877 -1.384346,-2.33209 -2.250057,-3.1669 -0.435552,-0.42001 -2.534118,-2.28356 -2.571536,-2.28356 -0.0158,0 -0.512722,0.53731 -1.104217,1.19404 -0.988764,1.09778 -1.080905,1.18585 -1.143018,1.09272 -0.0372,-0.0557 -0.271191,-0.36198 -0.520066,-0.68058 -0.579354,-0.74167 -1.352352,-1.89981 -1.739861,-2.60674 -0.600011,-1.09459 -0.613253,-1.10614 -1.409936,-1.22969 -1.712158,-0.26549 -4.155037,-0.35456 -5.485831,-0.2 -2.450716,0.28463 -5.247387,1.13864 -7.110103,2.17118 -1.277161,0.70797 -2.073812,1.31182 -3.25133,2.46445 -0.427373,0.41836 -0.788634,0.74905 -0.802797,0.73489 -0.03452,-0.0345 0.306869,-0.59309 0.630656,-1.03176 0.327345,-0.44348 1.534482,-1.68067 2.015749,-2.06592 l 0.361119,-0.28908 0.06102,-0.81681 c 0.292034,-3.91024 1.939425,-7.05366 4.68574,-8.94093 0.37525,-0.25787 0.379069,-0.2628 0.227485,-0.29312 -0.612301,-0.12246 -1.778487,-0.16594 -4.453429,-0.16605 -2.92452,0 -3.38255,0.0186 -5.84542,0.2387 -4.931611,0.44075 -10.511567,1.51379 -13.165362,2.53174 -0.942483,0.36153 -0.8937,0.34911 -0.818334,0.20828 0.06615,-0.12361 0.732748,-0.45714 2.013442,-1.00743 0.684345,-0.29404 3.282647,-1.20824 3.434044,-1.20824 0.03912,0 0.103673,-0.0395 0.143424,-0.0877 0.06601,-0.0801 0.05399,-0.0846 -0.138367,-0.051 -2.787839,0.48594 -5.563014,0.46337 -8.743338,-0.0711 -1.264671,-0.21253 -3.673534,-0.80932 -3.83326,-0.94967 -0.02376,-0.0209 0.116411,-0.30762 0.311466,-0.63723 1.339309,-2.26323 3.003437,-4.24419 5.15157,-6.13238 l 0.363607,-0.31961 -0.469307,-0.16603 c -0.567134,-0.20019 -0.935959,-0.2924 -2.575774,-0.64342 -0.746856,-0.15988 -1.339272,-0.26075 -1.448194,-0.24659 -0.115509,0.015 -0.405678,0.17373 -0.777327,0.42517 -1.823891,1.23403 -3.982666,1.86608 -6.866011,2.01028 -0.395097,0.0198 -0.934222,0.0189 -1.19805,-0.002 l -0.479687,-0.0379 v -0.19635 c 0,-0.108 0.08281,-0.45788 0.18402,-0.77751 1.223496,-3.86382 3.799275,-6.48939 7.042693,-7.17883 0.811007,-0.17238 1.911722,-0.23817 2.790233,-0.16676 0.817625,0.0665 1.612516,0.18742 1.845045,0.28074 0.181832,0.073 0.187206,0.21478 0.03632,0.95866 -0.278288,1.37215 -0.874169,2.61884 -1.778076,3.72006 -0.270893,0.33002 -0.308654,0.39949 -0.232199,0.42718 0.05019,0.0182 0.399364,0.0617 0.775889,0.0966 1.103757,0.1025 2.454523,0.37045 3.449327,0.68424 0.538894,0.16998 0.576176,0.1604 1.414637,-0.36359 1.611322,-1.00698 3.195258,-1.68413 4.878407,-2.08557 0.3186,-0.076 0.600807,-0.15128 0.627117,-0.1673 0.05853,-0.0356 -0.383193,-0.26062 -1.637862,-0.8341 -2.987614,-1.36556 -6.740793,-2.92146 -9.70586,-4.02361 -1.668607,-0.62023 -5.201927,-1.83472 -5.442927,-1.87085 -0.12344,-0.0185 -0.550669,0.009 -0.957771,0.0626 -1.168798,0.15276 -4.913598,0.13295 -5.172972,-0.0274 -0.04702,-0.029 0.012,-0.26583 0.224841,-0.90172 0.158743,-0.47425 0.282991,-0.86668 0.276112,-0.87204 -0.0069,-0.006 -0.172645,-0.0624 -0.368359,-0.12665 -0.195713,-0.0643 -0.34206,-0.13917 -0.325223,-0.16642 0.02755,-0.0446 0.388112,-0.026 0.692095,0.0357 0.103847,0.0211 0.15893,-0.063 0.512529,-0.78226 1.275412,-2.59432 2.879923,-4.58672 4.758923,-5.90939 0.205734,-0.14482 0.375088,-0.28239 0.376345,-0.30572 0.0012,-0.0233 -0.125312,-0.10081 -0.28125,-0.17221 -0.52225,-0.23909 -2.740698,-1.07794 -2.931424,-1.10844 -0.110707,-0.0177 -0.46953,0.0253 -0.869685,0.10412 -1.414401,0.27877 -2.216725,0.3545 -3.761917,0.35512 -1.706511,6.2e-4 -2.929564,-0.12442 -4.713201,-0.48208 -0.926647,-0.18583 -2.317425,-0.55715 -2.491314,-0.66517 l -0.121548,-0.0755 0.191366,-0.34816 c 0.422702,-0.76899 1.214464,-1.88086 2.053765,-2.88407 0.266546,-0.3186 0.52324,-0.65462 0.570423,-0.7467 0.04721,-0.0921 0.136968,-0.18366 0.199521,-0.20351 0.06255,-0.0198 0.436043,-0.32476 0.829996,-0.67758 1.314224,-1.17701 1.735296,-1.49362 3.086031,-2.32043 0.463423,-0.28369 0.871134,-0.53831 0.906034,-0.56586 0.04603,-0.0363 -0.190943,-0.35281 -0.862103,-1.1515 -0.509046,-0.60578 -0.940461,-1.10102 -0.958691,-1.10054 -0.01822,5.2e-4 -0.210878,0.10834 -0.428107,0.23968 -0.816163,0.49348 -1.61621,0.81944 -2.554078,1.04064 -0.845234,0.19934 -1.410943,0.25835 -2.475091,0.25819 -1.381349,0 -2.676261,-0.18987 -4.071878,-0.59642 -0.942085,-0.27444 -2.168503,-0.74687 -2.168503,-0.83533 0,-0.15645 1.162615,-1.48234 1.829035,-2.0859 1.358703,-1.23055 2.734808,-2.07493 4.14804,-2.54527 0.629611,-0.20954 1.566825,-0.42591 1.851421,-0.42745 0.258093,-0.001 0.304817,-0.0642 0.199807,-0.26868 -0.235285,-0.45809 -1.572149,-2.7193 -1.669814,-2.82437 -0.10932,-0.11762 -0.109351,-0.11849 -0.0037,-0.11849 0.142074,0 0.14641,0.006 1.091616,1.39553 0.453005,0.66616 0.88562,1.29097 0.961366,1.38847 0.204353,0.26302 0.480751,0.35847 1.231052,0.42511 1.221592,0.1085 2.244124,0.40954 3.421313,1.00727 0.635233,0.32255 1.369195,0.76955 1.369195,0.83388 0,0.0701 -0.374261,0.66079 -0.670625,1.05846 -0.161884,0.21723 -0.542906,0.64873 -0.846715,0.95887 l -0.552373,0.5639 0.358195,0.41034 c 0.197008,0.22568 0.688022,0.76841 1.09115,1.20605 l 0.732947,0.79572 0.555682,-0.17634 c 1.264695,-0.40135 2.409789,-0.57015 3.86062,-0.56909 1.425342,0.001 2.51544,0.15984 3.924051,0.57164 1.100131,0.32163 3.162479,1.1738 3.22311,1.33181 0.04267,0.11126 -0.728513,1.61352 -1.183831,2.30604 -0.891025,1.3552 -1.681295,2.19943 -3.167853,3.38413 -0.169491,0.13507 -0.168751,0.136 0.887237,1.10946 0.605242,0.55794 0.913921,0.80682 1.027029,0.82803 0.09324,0.0175 0.328869,-0.0153 0.556534,-0.0775 0.21716,-0.0593 0.679202,-0.15871 1.026768,-0.22088 0.88733,-0.15873 2.758742,-0.19734 3.791623,-0.0782 0.738664,0.0852 2.001836,0.32396 2.537533,0.4797 l 0.285616,0.083 -0.0352,0.24783 c -0.06431,0.45271 -0.379343,1.60926 -0.593722,2.17969 -0.280566,0.74654 -0.667042,1.52144 -1.111663,2.2289 -0.275104,0.43774 -0.348654,0.59306 -0.301855,0.63744 0.217247,0.20595 2.830705,2.33742 2.865985,2.33742 0.02395,0 0.240733,-0.32906 0.481771,-0.73126 1.633235,-2.7252 3.690558,-4.41707 6.35117,-5.22299 0.202742,-0.0614 0.387385,-0.12939 0.410311,-0.15105 0.122824,-0.11607 -1.913607,-1.63496 -3.233323,-2.41161 -0.497713,-0.29289 -0.984597,-0.64618 -0.890553,-0.64618 0.0329,0 0.815429,0.37995 1.738984,0.84433 1.23155,0.61926 1.899339,0.99127 2.505047,1.39553 0.45423,0.30316 0.864304,0.55468 0.911289,0.55892 0.04696,0.004 0.796353,0.0109 1.665267,0.0148 1.707873,0.008 1.963508,0.0337 3.464751,0.35352 0.632982,0.13483 0.78991,0.1863 0.837124,0.27451 0.07356,0.13744 0.02003,1.46716 -0.09045,2.24582 -0.04317,0.30412 -0.150402,0.85069 -0.23837,1.21459 -0.120876,0.50009 -0.147528,0.69427 -0.109133,0.79526 0.04509,0.11854 0.295082,0.39228 1.759454,1.92643 0.200355,0.20991 0.386271,0.36805 0.413147,0.35144 0.02687,-0.0166 0.152356,-0.23575 0.278843,-0.48697 0.80432,-1.59752 2.043135,-2.99236 3.568679,-4.01813 1.724206,-1.15936 4.141665,-1.95423 6.508164,-2.13991 l 0.541103,-0.0425 0.07425,0.25 c 0.191261,0.64405 0.264891,1.41648 0.265145,2.78168 0,1.19286 -0.01325,1.40955 -0.120665,1.93972 -0.166325,0.82093 -0.406735,1.52544 -0.842279,2.46821 -0.569441,1.2326 -0.574604,0.9308 0.04522,2.64324 0.306378,0.84643 0.557392,1.46495 0.587074,1.4466 0.02855,-0.0176 0.176662,-0.22468 0.329198,-0.46012 1.130819,-1.74544 2.351396,-2.99103 3.951306,-4.03226 1.61483,-1.05096 3.63507,-1.76177 5.770987,-2.0305 0.359538,-0.0452 0.7168,-0.0948 0.793907,-0.11017 l 0.140208,-0.0279 -0.2192,-0.19886 c -0.280776,-0.25474 -3.154952,-2.43585 -4.57655,-3.473 -1.611919,-1.17599 -6.499083,-4.63629 -6.636517,-4.69891 -0.09979,-0.0455 -0.206088,-0.006 -0.671079,0.24708 -0.717,0.39074 -1.289599,0.65881 -1.843776,0.86318 -3.064485,1.13014 -7.049055,0.77672 -10.952506,-0.97144 -0.749069,-0.33547 -2.020159,-1.01954 -2.227367,-1.19872 l -0.168733,-0.1459 0.579293,-0.56685 c 0.318605,-0.31176 0.78071,-0.729 1.026897,-0.92719 0.516635,-0.41592 1.944943,-1.37587 3.068174,-2.06208 0.426689,-0.26067 0.775865,-0.48953 0.775946,-0.50857 3.73e-4,-0.0845 -1.162827,-0.21863 -3.587426,-0.41354 -1.43734,-0.11556 -2.698397,-0.2101 -2.802343,-0.2101 -0.17002,0 -0.246051,0.0569 -0.756994,0.56694 -1.738636,1.73546 -3.82146,2.66049 -6.966356,3.09393 -0.840321,0.11582 -3.043966,0.1609 -4.029203,0.0824 -0.897214,-0.0715 -1.869284,-0.19773 -2.049405,-0.26621 -0.120653,-0.0459 -0.121082,-0.0493 -0.0543,-0.43196 0.145986,-0.83632 0.52327,-2.09876 0.965191,-3.22965 0.113139,-0.28953 0.200994,-0.53181 0.195235,-0.53841 -0.0056,-0.007 -0.50091,-0.0944 -1.100342,-0.19515 -2.249268,-0.37802 -4.027892,-0.93029 -5.621761,-1.74557 -0.662358,-0.33881 -1.967943,-1.18268 -2.155391,-1.39314 -0.07241,-0.0813 -0.202749,-0.18429 -0.28964,-0.22886 -0.139076,-0.0713 -0.144126,-0.0813 -0.04223,-0.0831 0.06368,-0.001 0.179704,0.0572 0.257832,0.12954 0.07813,0.0724 0.166145,0.13165 0.195589,0.13165 0.02942,0 0.304431,0.1407 0.611082,0.31266 1.443791,0.80964 3.559263,1.5227 5.45959,1.84025 0.917043,0.15324 2.646891,0.33633 2.882779,0.30512 0.254491,-0.0336 0.358997,-0.12925 0.586881,-0.53674 1.037204,-1.8547 2.502571,-3.39493 4.15536,-4.36765 0.85971,-0.50596 1.731373,-0.85622 2.759384,-1.10882 0.572525,-0.14067 0.590712,-0.14946 0.505133,-0.24402 -0.07889,-0.0872 -1.689157,-1.09044 -2.679725,-1.66958 -0.59335,-0.34691 -0.909661,-0.45106 -2.741166,-0.90261 -0.953814,-0.23516 -1.763832,-0.4374 -1.800038,-0.44942 -0.0362,-0.012 -0.06582,0.008 -0.06582,0.0435 0,0.036 0.225874,0.24014 0.501942,0.45368 0.276068,0.21354 0.514849,0.40915 0.530622,0.43467 0.03751,0.0607 -0.488153,1.00068 -0.880227,1.57404 -1.379602,2.01743 -3.069642,3.21965 -5.196584,3.69663 -0.445652,0.0999 -0.670923,0.11479 -1.749079,0.11534 -1.333444,6.2e-4 -1.857958,-0.0644 -3.001702,-0.37259 -1.203928,-0.32438 -2.740823,-0.98813 -3.92328,-1.69437 -0.80748,-0.48227 -0.791277,-0.42182 -0.279209,-1.04158 0.912403,-1.1043 1.959136,-2.08919 3.05658,-2.87599 0.642517,-0.46065 1.675672,-1.06587 2.276604,-1.33363 l 0.459056,-0.20455 -1.19132,-0.19696 c -0.655218,-0.10832 -2.085231,-0.37947 -3.177805,-0.60256 l -1.986485,-0.40561 -1.062973,0.0686 c -3.025648,0.19525 -5.847964,-0.28054 -8.964018,-1.5111 -0.881615,-0.34816 -1.110903,-0.46276 -1.110903,-0.55522 0,-0.0786 0.614727,-0.84594 1.126515,-1.40607 0.249329,-0.27289 0.453328,-0.51662 0.453328,-0.54163 0,-0.0592 -0.166294,-0.32022 -0.235764,-0.3701 -0.108281,-0.0778 0.03489,-0.0375 0.241691,0.068 l 0.212384,0.10835 0.39817,-0.35849 c 1.523951,-1.37206 2.731984,-2.21451 4.254698,-2.9671 0.908677,-0.4491 1.974512,-0.85592 2.622148,-1.00086 0.195266,-0.0437 0.299368,-0.0924 0.289553,-0.13543 -0.01449,-0.0634 -2.574355,-2.05514 -2.713698,-2.11137 -0.03589,-0.0145 -0.33214,0.092 -0.658272,0.23658 -1.254713,0.55636 -2.106721,0.75087 -3.450303,0.7877 -1.050316,0.0288 -1.645314,-0.0234 -2.540469,-0.22283 -1.915236,-0.4267 -3.731602,-1.29163 -5.604164,-2.6686 l -0.453919,-0.33378 0.172166,-0.147 c 0.397063,-0.33903 1.63268,-1.11649 2.350103,-1.47872 1.756705,-0.88695 3.14981,-1.28202 5.047774,-1.43151 l 0.432379,-0.0341 -0.20245,-0.40283 c -0.275446,-0.54808 -0.376077,-0.79778 -0.32151,-0.79778 0.02519,0 0.06052,0.0652 0.07848,0.14481 0.01797,0.0797 0.150203,0.28658 0.293825,0.45984 0.143623,0.17326 0.261135,0.33222 0.261135,0.35325 0,0.021 0.100712,0.0972 0.223809,0.16928 0.155521,0.0911 0.395365,0.15649 0.786071,0.21445 1.667992,0.24742 3.071098,0.88417 4.414244,2.00324 0.537732,0.44801 1.316638,1.26454 1.316103,1.37966 -2.69e-4,0.0566 -0.293391,0.33452 -0.737264,0.69897 -0.405249,0.33274 -0.736823,0.6186 -0.736823,0.63525 0,0.0826 0.40913,0.38271 1.68517,1.23598 0.767537,0.51325 1.471786,0.96585 1.564984,1.0058 0.125647,0.0539 0.448302,0.0726 1.248014,0.0726 2.237879,0 3.862885,0.38366 5.902468,1.39356 0.880172,0.43581 2.063755,1.13787 2.147928,1.27406 0.01623,0.0263 -0.229133,0.4262 -0.54527,0.8887 -0.495536,0.72494 -0.563506,0.84932 -0.492899,0.90186 0.138454,0.10303 6.078528,3.08029 6.078528,3.04667 0,-0.0174 -0.195502,-0.23787 -0.434457,-0.49003 -0.953914,-1.00665 -1.6867,-2.15221 -2.275129,-3.55671 -0.31378,-0.74894 -0.746004,-2.10421 -0.850354,-2.66635 -0.120752,-0.65052 -0.266384,-0.88022 -1.047934,-1.65289 -1.730724,-1.71105 -3.462705,-3.00176 -5.417954,-4.03759 -0.62578,-0.33151 -0.879705,-0.52415 -0.59863,-0.45415 0.07964,0.0198 0.397772,0.14412 0.706955,0.27618 2.000604,0.85451 3.944558,2.08241 5.763225,3.64035 0.336369,0.28815 0.712378,0.56424 0.835575,0.61354 0.199241,0.0797 0.373179,0.0858 1.573866,0.0547 2.928395,-0.0759 5.22767,0.33594 7.201777,1.28981 2.962493,1.43143 4.577192,3.80828 4.994034,7.35122 0.04429,0.37653 0.09367,0.78301 0.109718,0.90329 l 0.02917,0.2187 -0.331593,0.10929 c -0.808855,0.26659 -1.966159,0.48204 -3.22512,0.60042 l -0.681739,0.0641 0.523755,0.50928 c 1.272439,1.23728 2.739753,2.35982 4.341714,3.32154 1.101754,0.66143 1.301392,0.7452 2.290773,0.96119 0.492388,0.1075 0.916016,0.21494 0.9414,0.23876 0.02538,0.0238 0.05449,0.14118 0.06459,0.26078 0.03825,0.45153 0.100948,0.50669 1.469099,1.29329 0.492381,0.2831 1.570625,0.91072 2.396093,1.3947 1.513851,0.88762 1.843147,1.07223 1.843147,1.03329 0,-0.0117 -0.183652,-0.15843 -0.408121,-0.32605 -0.848363,-0.63347 -1.742921,-1.60176 -2.381763,-2.57805 -0.387832,-0.59271 -1.009227,-1.88635 -1.264173,-2.63181 -0.261775,-0.76543 -0.653414,-2.23633 -0.60763,-2.28211 0.06599,-0.066 1.547289,-0.0131 2.33142,0.0832 0.441696,0.0542 0.803089,0.0815 0.803089,0.0605 0,-0.021 -0.193481,-0.40187 -0.429954,-0.84635 -1.056872,-1.98651 -1.859059,-3.0307 -3.736025,-4.86308 -1.821248,-1.778 -3.638509,-3.16516 -6.945587,-5.30177 -2.672038,-1.72632 -4.384401,-2.74707 -8.952443,-5.33659 -1.5206,-0.86199 -3.582295,-2.05875 -4.581546,-2.65945 -0.999251,-0.60071 -1.868096,-1.1079 -1.930761,-1.12708 -0.100513,-0.0308 -0.08345,0.0225 0.144817,0.45183 0.142323,0.2677 0.258758,0.5039 0.258758,0.52491 0,0.13173 -1.331422,0.78634 -2.219766,1.09138 -1.964504,0.67457 -3.948203,0.76759 -5.873242,0.27541 -1.51515,-0.38737 -3.315879,-1.3302 -4.73005,-2.47657 -0.816524,-0.6619 -2.163745,-2.04744 -2.596703,-2.67057 l -0.115472,-0.16619 0.566169,-0.23831 c 2.376377,-1.00029 4.815934,-1.45253 7.008408,-1.29922 0.453764,0.0317 0.878344,0.0711 0.943515,0.0874 0.239496,0.0601 0.102348,-0.0939 -0.631931,-0.70939 -2.037587,-1.70807 -3.334614,-3.07658 -4.45109,-4.69642 -0.189656,-0.27515 -0.471359,-0.67134 -0.626016,-0.88041 -0.154657,-0.20907 -0.281193,-0.40256 -0.281193,-0.42997 0,-0.10421 0.398052,0.3042 0.793908,0.81458 0.226558,0.29211 0.448676,0.56161 0.493602,0.59889 0.14152,0.11745 0.08889,-0.0258 -0.100663,-0.27409 -0.813445,-1.06534 -1.774394,-2.81833 -2.287805,-4.1735 -0.484502,-1.27886 -1.027726,-3.38892 -0.934801,-3.63108 0.03545,-0.0924 0.09131,-0.096 0.963312,-0.0631 3.04429,0.11485 5.768325,0.74949 8.258289,1.924 0.314009,0.14812 0.58099,0.2693 0.593293,0.2693 0.08352,0 -1.308353,-1.15349 -2.236523,-1.85348 -0.615479,-0.46417 -1.119051,-0.878262 -1.119051,-0.920202 0,-0.0907 -0.04055,-0.11315 0.763226,0.423092 1.342076,0.89537 2.886603,2.1199 4.368957,3.46379 0.897214,0.81341 3.2381,3.16569 4.290039,4.31093 0.385762,0.41998 0.72842,0.77937 0.761466,0.79865 0.0446,0.026 0.0487,-0.12981 0.01592,-0.60561 -0.105681,-1.53308 0.0099,-3.2786 0.32477,-4.90624 l 0.0917,-0.47395 0.181919,0.0106 c 0.100059,0.006 0.584784,0.18776 1.077167,0.40431 0.709492,0.31204 0.905474,0.37915 0.944541,0.32347 0.03831,-0.0546 0.114725,-0.0147 0.342297,0.17878 0.161156,0.13697 0.470737,0.3521 0.687966,0.47806 2.100588,1.21803 3.889219,2.84286 4.972015,4.51669 0.768756,1.18837 1.253432,2.58745 1.399953,4.04113 0.04323,0.42904 0.08838,0.62862 0.174044,0.76951 0.06362,0.10463 0.814739,0.80291 1.669172,1.55172 0.854435,0.74882 1.870013,1.64075 2.256844,1.98206 0.386832,0.3413 0.726118,0.62056 0.753977,0.62056 0.0553,0 0.03371,-0.0939 -0.118308,-0.51376 -0.352653,-0.97407 -0.610497,-2.33671 -0.685023,-3.62017 -0.05362,-0.92311 -0.06387,-0.98027 -0.392498,-2.18545 -0.493695,-1.81047 -0.931772,-3.63681 -1.237926,-5.16082 -0.248588,-1.23746 -0.379703,-2.18037 -0.291928,-2.09938 0.0199,0.0184 0.107236,0.2909 0.194053,0.60561 0.14886,0.53962 0.457526,1.50743 1.762813,5.52725 0.317262,0.97706 0.588516,1.72601 0.642977,1.7753 0.05181,0.0469 0.377713,0.16711 0.724234,0.26717 0.795619,0.22973 1.532249,0.49622 2.226503,0.80549 0.309711,0.13797 0.562287,0.22198 0.587546,0.19543 0.02438,-0.0256 0.152007,-0.46127 0.283649,-0.96814 0.43954,-1.69233 0.914911,-3.05428 1.482871,-4.24846 0.303068,-0.63723 0.587925,-1.10465 0.640906,-1.05167 0.01182,0.0119 -0.155919,0.56587 -0.372818,1.23114 -0.561784,1.72312 -0.899945,3.1551 -1.159642,4.91067 -0.06467,0.43714 -0.06816,0.56542 -0.01679,0.61634 0.03564,0.0354 0.491412,0.39383 1.01276,0.79659 0.751272,0.58038 0.957354,0.71617 0.993436,0.65459 0.02507,-0.0427 0.138217,-0.61407 0.251493,-1.26964 0.113282,-0.65556 0.303193,-1.72513 0.422029,-2.37682 0.250113,-1.3716 0.282151,-2.04171 0.127656,-2.67013 -0.0845,-0.34372 -0.08573,-0.39446 -0.013,-0.54027 0.07106,-0.14245 0.07181,-0.2349 0.0065,-0.80553 -0.137869,-1.20448 -0.28727,-2.72493 -0.28719,-2.92267 1.07e-4,-0.27743 0.15518,-0.57063 0.289783,-0.54793 0.273886,0.0462 0.450916,0.35818 1.035855,1.82543 0.173199,0.43445 0.385439,0.9006 0.471634,1.03587 0.252619,0.39644 1.918166,1.76016 4.811661,3.9397 0.89788,0.67633 1.658518,1.24935 1.690314,1.27337 0.03875,0.0293 0.123688,-0.1339 0.257819,-0.49551 0.811735,-2.18837 2.109869,-4.28108 3.811968,-6.14529 0.657172,-0.71976 1.165216,-1.21432 1.247437,-1.21432 0.03937,0 0.246095,0.23105 0.459398,0.51345 3.513777,4.65207 4.512001,9.68589 2.694174,13.58621 -0.71519,1.53451 -1.805406,2.87164 -3.488997,4.27918 -0.433052,0.36205 -0.837292,0.73026 -0.898308,0.81823 -0.06102,0.088 -0.278582,0.73966 -0.483482,1.44819 -0.204895,0.70853 -0.477816,1.63548 -0.606486,2.05988 -0.12867,0.42441 -0.233947,0.85836 -0.233947,0.96435 0,0.14305 0.08978,0.34447 0.348497,0.78185 0.191679,0.32405 0.355907,0.5974 0.364964,0.60744 0.0091,0.0101 0.118824,-0.11686 0.243942,-0.28201 1.080034,-1.4257 2.011912,-2.5264 3.813879,-4.50485 1.992226,-2.18734 2.579685,-2.8776 3.056535,-3.59141 0.130612,-0.1955 0.260116,-0.35546 0.287788,-0.35546 0.02768,0 0.07175,-0.0533 0.09794,-0.11849 0.03738,-0.0931 0.04833,-0.0984 0.05094,-0.0248 0.0044,0.11784 -0.248824,0.62157 -0.58224,1.15914 -0.351253,0.56634 -0.892816,1.2871 -2.756969,3.66919 -0.878356,1.1224 -1.780458,2.28699 -2.004684,2.58797 -0.492003,0.66045 -1.497455,2.17839 -1.569705,2.36981 -0.04634,0.12281 0.0092,0.23861 0.517778,1.07964 0.919629,1.52074 1.73644,2.8212 2.443967,3.89112 0.580425,0.87771 0.665034,0.98351 0.689086,0.86164 l 0.02743,-0.13892 0.168104,0.21792 c 0.09246,0.11985 0.352404,0.46673 0.577662,0.77085 0.657867,0.88822 1.827319,1.99901 2.775387,2.63618 0.169839,0.11415 0.353797,0.20754 0.408787,0.20754 0.09356,0 0.09187,-0.0129 -0.02643,-0.20029 -0.743098,-1.17714 -1.330687,-3.1545 -1.51125,-5.08572 -0.07782,-0.83219 -0.03589,-2.602 0.08188,-3.45579 0.133908,-0.97085 0.369864,-2.05143 0.708721,-3.24561 0.269917,-0.95124 0.49311,-1.63268 0.555079,-1.69472 0.02227,-0.0223 0.798306,0.36913 1.317577,0.66455 1.108309,0.63055 2.66851,1.73394 3.621566,2.56122 0.282941,0.2456 0.470333,0.37486 0.483681,0.33365 0.05125,-0.15824 1.134564,-5.0791 1.134564,-5.15372 0,-0.0452 -0.195503,-0.22124 -0.434457,-0.3911 -3.206908,-2.27963 -4.944275,-5.11059 -5.310152,-8.65265 -0.03831,-0.37115 -0.05094,-1.03709 -0.03334,-1.76416 0.03371,-1.39232 0.146689,-2.21167 0.49362,-3.57926 0.149158,-0.58797 0.229905,-1.00926 0.212968,-1.11104 -0.02544,-0.15267 -0.704878,-1.28212 -1.317135,-2.18945 -0.896188,-1.3281 -2.808103,-2.76579 -5.542768,-4.16796 l -1.015858,-0.52088 -0.701575,-5.4e-4 c -3.250465,-0.002 -5.667967,-0.85912 -7.935049,-2.811672 -0.35794,-0.30828 -0.695784,-0.58459 -0.750767,-0.61401 -0.112101,-0.06 -5.89447,-1.4982 -6.253493,-1.55539 -0.209111,-0.0333 -0.227167,-0.0276 -0.200534,0.0633 0.248104,0.84649 0.299934,2.968772 0.09568,3.917802 -0.18027,0.83759 -0.511228,1.77595 -0.897904,2.54581 -0.349811,0.69647 -0.899777,1.56505 -1.238952,1.95674 l -0.18241,0.21065 -0.4372,-0.23248 c -1.929791,-1.02614 -3.396582,-2.30596 -4.411052,-3.84879 -1.011467,-1.53826 -1.423774,-3.065732 -1.423899,-5.275122 l -4.3e-5,-0.77257 -0.144817,-0.0288 c -0.07965,-0.0158 -0.47659,-0.0661 -0.882081,-0.11172 -0.405491,-0.0456 -0.799463,-0.095 -0.875489,-0.10978 l -0.13823,-0.0269 0.09796,0.41086 c 0.142049,0.59576 0.298417,1.58397 0.360833,2.28035 0.0696,0.7765 0.07066,1.774372 0.0019,1.816852 -0.113494,0.0701 -2.665948,0.0934 -3.370005,0.0307 -2.514687,-0.223912 -4.618392,-0.938532 -6.532154,-2.218952 -0.935547,-0.62594 -1.885238,-1.46788 -2.567855,-2.27651 -0.39929,-0.47301 -0.600278,-0.61461 -0.886018,-0.62422 -0.112331,-0.004 -1.039518,0.0358 -2.060414,0.088 -1.020902,0.0522 -1.87204,0.079 -1.891427,0.0597 -0.01941,-0.0194 -0.01972,-0.0508 -6.22e-4,-0.0698 0.01897,-0.019 0.899478,-0.13325 1.956642,-0.25392 1.057164,-0.12067 1.935333,-0.23261 1.951486,-0.24876 0.01617,-0.0161 -0.146161,-0.29883 -0.36069,-0.62816 -1.176734,-1.8065 -2.090742,-3.92924 -2.616027,-6.07559 -0.237617,-0.97094 -0.368153,-1.64223 -0.327283,-1.6831 0.04621,-0.0463 1.141232,-0.0322 1.906653,0.0245 2.070584,0.15333 4.135084,0.57218 6.224856,1.26292 0.525528,0.17371 0.96381,0.30753 0.973949,0.29739 0.01014,-0.0101 -0.236896,-0.24024 -0.548983,-0.51132 -1.20794,-1.04925 -2.989337,-2.91359 -3.274891,-3.42736 -0.110863,-0.19947 -0.03782,-0.1447 0.572961,0.42966 1.0652,1.00167 1.423824,1.3239 2.096321,1.88362 2.377764,1.97898 5.320097,4.02255 8.071805,5.60619 1.190076,0.68491 2.650628,1.46264 2.746787,1.46264 0.05349,0 0.196846,-0.28873 0.43794,-0.88208 0.494765,-1.21763 0.815218,-1.89559 1.193758,-2.52558 l 0.323041,-0.53762 0.15559,0.09 c 0.223373,0.1292 1.146674,0.90256 1.670149,1.39893 1.462611,1.38688 2.47136,2.68858 3.281291,4.23421 0.264138,0.50407 0.418503,0.74152 0.510333,0.78502 0.133963,0.0635 5.071029,1.01811 5.265219,1.01811 0.05847,0 0.106248,-0.0127 0.106248,-0.0282 0,-0.0155 -0.103542,-0.21099 -0.230104,-0.43446 -0.840582,-1.48425 -1.470915,-3.13446 -1.819357,-4.76311 -0.06033,-0.28189 -0.109656,-0.52206 -0.109656,-0.53371 0,-0.11633 1.827462,-0.0562 3.107023,0.10214 1.921139,0.23781 3.812995,0.78296 5.213482,1.5023 0.275161,0.14133 0.890348,0.50501 1.367093,0.80817 0.476746,0.30317 0.875594,0.54242 0.886342,0.53167 0.02836,-0.0284 -0.08817,-0.23759 -0.250598,-0.44985 -0.07757,-0.10138 -0.937388,-1.22701 -1.910702,-2.50142 l -1.769661,-2.3171 -0.609266,-0.44763 c -0.833274,-0.6122 -1.614027,-1.09654 -2.421128,-1.50193 -0.373627,-0.18767 -0.696829,-0.34122 -0.718232,-0.34122 -0.0214,0 -0.05511,0.0889 -0.07495,0.19748 -0.06822,0.37391 -0.651356,2.04715 -0.900566,2.58409 l -0.249653,0.53788 -0.189488,-0.0328 c -0.334572,-0.0578 -2.170058,-0.68653 -2.822564,-0.9668 -2.760173,-1.18555 -4.937539,-2.92156 -6.388986,-5.09393 -0.177589,-0.2658 -0.376767,-0.52121 -0.442611,-0.56758 -0.06584,-0.0464 -0.35669,-0.15711 -0.64633,-0.24609 -0.28964,-0.089 -1.555119,-0.47971 -2.812183,-0.86827 -1.257057,-0.38856 -2.296234,-0.6958 -2.309277,-0.68276 -0.01306,0.013 0.0713,0.26816 0.187436,0.56693 0.541544,1.39329 0.958088,3.18002 0.958088,4.10965 v 0.19886 h -0.263733 c -0.698173,0 -2.304961,-0.3305 -3.464143,-0.71253 -1.716605,-0.56574 -3.14933,-1.38561 -4.199975,-2.40341 -0.715744,-0.69337 -1.151028,-1.2878 -1.55525,-2.12388 -0.57283,-1.1848 -0.755103,-2.12737 -0.725559,-3.75198 0.02289,-1.25854 -0.02065,-1.19468 0.782178,-1.14806 2.157469,0.12532 3.688486,0.5948 5.13449,1.57447 0.687263,0.46562 1.635661,1.43253 2.254667,2.29868 0.279439,0.39101 0.556714,0.74125 0.616157,0.7783 0.133236,0.0831 5.351041,1.5388 5.515513,1.5388 0.140164,0 0.142372,-0.0117 0.03968,-0.2103 -0.169323,-0.32743 -0.56684,-1.47402 -0.738141,-2.12907 -0.376152,-1.43837 -0.513897,-2.55683 -0.512865,-4.16432 6.22e-4,-1.17764 0.08932,-2.28522 0.269501,-3.37029 l 0.09172,-0.552379 -0.178286,-0.171453 c -0.09806,-0.0943 -0.200379,-0.21199 -0.22738,-0.261536 -0.04572,-0.08387 -0.03396,-0.08474 0.170524,-0.0126 0.120783,0.04261 0.23368,0.06419 0.250884,0.04794 0.01723,-0.01625 0.209012,-0.650414 0.42624,-1.409256 0.385936,-1.348179 0.397922,-1.379294 0.524434,-1.361377 0.352081,0.04987 2.611083,1.285397 3.82656,2.092886 3.034811,2.016155 5.383161,4.533845 6.700352,7.183515 0.612245,1.23162 0.946538,2.29542 1.161639,3.6967 0.05809,0.3786 0.147889,0.75307 0.209472,0.87379 0.05927,0.11619 0.398786,0.5276 0.754475,0.91427 0.355682,0.38666 1.603833,1.75756 2.773657,3.04644 2.38779,2.63078 2.692712,2.95451 2.749649,2.91932 0.0767,-0.0474 -0.269034,-0.93577 -0.712995,-1.83206 -0.486846,-0.98286 -0.782059,-1.78522 -1.025063,-2.78606 -0.326424,-1.34437 -0.426334,-2.38343 -0.426576,-4.43629 0,-1.36712 -0.01393,-1.61474 -0.131121,-2.36257 -0.136308,-0.86967 -0.601833,-3.52315 -0.621252,-3.54112 -0.0062,-0.006 -0.359557,-0.096 -0.785412,-0.20075 -1.897435,-0.46669 -3.239978,-1.12177 -4.42715,-2.160165 -1.620378,-1.417311 -2.602959,-3.317916 -3.050888,-5.901329 -0.10511,-0.606202 -0.118495,-0.859483 -0.116853,-2.211781 0.0012,-0.839949 0.02519,-1.621972 0.05368,-1.737827 0.04926,-0.200157 0.06286,-0.211452 0.273431,-0.226833 0.124167,-0.0091 0.440141,0.04335 0.718642,0.119221 1.070126,0.291533 2.318476,0.879739 4.190074,1.974299 0.757292,0.442888 1.084525,0.608875 1.096199,0.556049 0.01325,-0.05992 -0.283414,-1.230174 -0.670892,-2.646547 -0.02575,-0.09413 -0.03757,-0.17115 -0.02631,-0.17115 0.06677,0 0.3315,0.672621 0.753467,1.914357 0.264288,0.77774 0.5314,1.488669 0.593573,1.579843 0.0622,0.09117 0.24834,0.307956 0.413695,0.481739 1.293637,1.359571 2.013001,2.678845 2.381459,4.367495 0.09951,0.456045 0.115658,0.691715 0.115714,1.68857 5.6e-5,0.872989 -0.02214,1.275379 -0.08992,1.632509 -0.128116,0.67477 -0.16908,0.79332 -0.355433,1.02861 l -0.16584,0.2094 0.164117,0.77366 c 0.09026,0.42551 0.17145,0.78099 0.180413,0.78995 0.009,0.009 0.08137,-0.10327 0.160908,-0.24941 0.171207,-0.31456 0.06653,-0.32946 1.188943,0.16922 2.686841,1.19374 4.839838,2.68613 6.763577,4.68827 l 0.767014,0.79827 v -2.51096 c 0,-1.63888 0.01829,-2.51098 0.05268,-2.51098 0.02898,0 0.05268,0.0206 0.05268,0.0459 0,0.48538 0.739547,6.27225 0.841323,6.58326 0.05324,0.16272 0.217663,0.58794 0.36536,0.94493 0.625997,1.51304 0.887517,3.19002 0.744759,4.77576 -0.07525,0.83587 -0.04509,1.1154 0.31697,2.93767 0.647033,3.25658 1.401999,6.30354 2.27959,9.200082 0.532258,1.75677 1.292243,3.92665 1.452995,4.14857 0.07835,0.10816 0.424935,0.40109 0.770192,0.65094 3.403953,2.46343 5.941125,5.79887 6.729593,8.84695 0.278567,1.07689 0.3211,1.45849 0.322001,2.88923 l 6.21e-4,1.34287 0.232206,0.42129 c 0.127713,0.23171 0.364009,0.62272 0.525105,0.86891 l 0.29292,0.44762 0.0394,-0.31597 c 0.0217,-0.17378 0.13582,-3.85875 0.25359,-8.18885 0.11778,-4.33009 0.25111,-8.93928 0.29631,-10.24265 0.0452,-1.30337 0.0698,-2.594892 0.0547,-2.870042 -0.0501,-0.91215 -0.78204,-4.17329 -1.486725,-6.62421 -0.837976,-2.91447 -2.654851,-7.9081 -2.977649,-8.18393 -0.05747,-0.0491 -0.216003,-0.10481 -0.352337,-0.1238 -2.297751,-0.3201 -4.339686,-1.13485 -6.059058,-2.41761 -1.98618,-1.48181 -3.715301,-3.77125 -4.854118,-6.4271 -0.591416,-1.37923 -1.241757,-3.616053 -1.215677,-4.181253 l 0.0056,-0.12633 1.198051,0.03116 c 0.658925,0.01714 1.506113,0.06829 1.882644,0.113671 0.71417,0.08607 2.24729,0.325661 2.4127,0.377047 0.08993,0.02794 0.08941,0.01773 -0.0089,-0.172422 -0.136998,-0.264985 -1.426015,-2.138733 -1.670877,-2.428843 -0.104731,-0.124073 -0.465792,-0.40514 -0.802361,-0.624593 -0.839662,-0.547474 -1.15838,-0.798623 -1.79278,-1.412681 -1.131715,-1.095434 -1.837377,-2.252496 -2.263169,-3.710881 -0.08702,-0.29806 -0.213403,-0.619344 -0.280852,-0.713965 -0.06745,-0.09462 -0.610031,-0.70214 -1.205731,-1.350041 -1.959267,-2.130946 -2.183026,-2.381183 -2.076592,-2.322235 0.18264,0.101151 1.067931,0.882354 2.168067,1.913154 0.5842,0.547381 1.070002,0.995134 1.079562,0.995009 0.0096,-1.06e-4 0.02264,-0.325968 0.02905,-0.724095 0.02556,-1.58981 0.318002,-2.996383 0.944248,-4.541821 0.409105,-1.009581 1.154972,-2.422426 1.278846,-2.422426 0.138579,0 1.301928,0.983533 2.056645,1.738755 1.137326,1.138083 1.944339,2.253874 2.608365,3.606381 0.417906,0.851213 0.637946,1.465561 0.826948,2.308925 0.162021,0.722909 0.173677,2.440457 0.02133,3.141534 -0.227964,1.049047 -0.620026,2.010227 -1.249146,3.062393 l -0.372022,0.622189 0.442792,0.56697 c 0.243532,0.311833 0.806553,1.05195 1.251167,1.644705 0.444602,0.592755 0.869262,1.134351 0.943671,1.203546 0.184487,0.171559 0.458975,0.305477 1.852689,0.903897 0.87792,0.37695 1.206086,0.49607 1.225722,0.4449 0.03583,-0.0934 -0.06362,-2.633817 -0.12194,-3.114584 -0.03576,-0.294809 -0.104742,-0.495057 -0.308381,-0.895245 -1.217294,-2.392256 -1.434024,-5.377964 -0.619167,-8.529735 0.09873,-0.381865 0.210697,-0.75372 0.248825,-0.826345 l 0.06933,-0.132046 0.596764,0.264691 c 0.328216,0.14558 0.602997,0.256761 0.610616,0.24707 0.0076,-0.0097 0.197263,-0.977375 0.421426,-2.150409 0.532351,-2.785704 0.497912,-2.633072 0.594121,-2.633072 0.06635,0 0.0757,0.04628 0.05051,0.250142 -0.01698,0.137578 -0.142329,1.237278 -0.278544,2.443777 -0.211605,1.874221 -0.237971,2.217039 -0.181085,2.354368 0.04845,0.117 0.21912,0.257759 0.627223,0.517337 3.30599,2.102805 5.169599,4.817008 5.308489,7.731389 0.0711,1.491887 -0.2766,2.97706 -1.07878,4.607872 -0.14245,0.28961 -0.28266,0.50702 -0.33295,0.51629 -0.12742,0.0235 -1.030936,-0.32283 -1.75627,-0.67316 -0.766902,-0.3704 -1.578226,-0.89868 -2.258137,-1.470333 -0.27906,-0.234624 -0.519047,-0.426589 -0.533316,-0.426589 -0.04777,0 -0.02892,0.334807 0.08311,1.474512 0.0612,0.62273 0.135587,1.19719 0.165305,1.2766 0.02973,0.0794 0.250629,0.30993 0.490921,0.51228 1.910379,1.60871 3.092188,3.49901 3.687737,5.89851 0.24384,0.98239 0.3379,1.66451 0.37543,2.72256 l 0.0321,0.90455 -0.179,0.0294 c -0.0984,0.0162 -0.463352,0.0556 -0.810918,0.0875 -0.347565,0.0319 -0.640744,0.0668 -0.651523,0.0774 -0.01076,0.0106 0.534279,1.36522 1.211211,3.01022 0.97216,2.3624 1.23323,2.95216 1.2424,2.80658 0.006,-0.10138 0.0481,-1.14407 0.0927,-2.31711 0.37594,-9.88937 0.83699,-20.910559 1.13457,-27.120633 0.0867,-1.810236 0.17307,-3.641876 0.19185,-4.07031 0.0188,-0.428434 0.0506,-0.760201 0.0708,-0.73726 0.11592,0.131821 0.59296,10.993758 1.07942,24.578063 0.13062,3.6473 0.24587,6.63985 0.25613,6.65011 0.0359,0.0359 0.25085,-0.52251 0.34915,-0.90687 0.0806,-0.31508 0.12927,-1.01281 0.25972,-3.72184 0.23088,-4.79436 0.29691,-6.30364 0.50526,-11.548312 0.16322,-4.10894 0.21227,-4.873152 0.30571,-4.76328 0.0107,0.01255 0.27308,2.830991 0.58313,6.263192 0.6756,7.479 0.60732,6.81901 0.69627,6.73007 0.0387,-0.0388 0.65145,-1.74931 1.36152,-3.80119 1.06875,-3.088351 1.29104,-3.779863 1.29104,-4.0162 0,-0.215667 -0.0597,-0.436232 -0.24375,-0.90179 -0.51692,-1.306956 -0.72114,-2.579791 -0.60542,-3.773326 0.18791,-1.937895 1.0745,-3.920075 2.55296,-5.707756 0.24697,-0.298623 0.48469,-0.642239 0.52826,-0.763591 0.0486,-0.135424 0.13176,-0.871482 0.21526,-1.905805 0.26114,-3.234946 0.33999,-3.383262 0.34214,-0.643532 l 0.002,2.042201 0.7241,-0.612298 c 0.39825,-0.336763 0.83614,-0.70656 0.97309,-0.821769 l 0.249,-0.209472 0.11963,0.129895 c 0.1768,0.191963 0.80342,1.367657 1.09193,2.048683 0.68349,1.613451 0.98213,2.890484 1.03911,4.443379 0.0575,1.568625 -0.18244,2.736041 -0.82722,4.023801 -0.66381,1.325776 -1.80091,2.560479 -3.24366,3.522098 -0.50261,0.334982 -1.59151,0.934202 -1.62196,0.892542 -0.007,-0.01 -0.0682,-0.10955 -0.13582,-0.22185 l -0.1229,-0.20418 -0.0699,0.17785 c -0.11276,0.28673 -3.0806,10.09991 -3.15947,10.44683 -0.1209,0.53177 -0.0875,1.41482 0.16052,4.23925 0.33235,3.78526 0.76879,9.26983 1.11052,13.955282 0.29831,4.09011 0.41924,5.41489 0.50195,5.49853 0.0285,0.0288 0.0707,-0.0135 0.10534,-0.10533 1.21598,-3.22641 3.26058,-8.171342 4.82454,-11.668342 0.48155,-1.07672 0.66704,-1.54793 0.66594,-1.6917 -10e-4,-0.15738 -0.0528,-0.26257 -0.24552,-0.50029 -0.1342,-0.16555 -0.43483,-0.58262 -0.66809,-0.92681 -1.66647,-2.45909 -2.25101,-5.32191 -1.68068,-8.23122 0.40794,-2.08098 1.45004,-4.40726 2.87933,-6.42753 0.59844,-0.84588 1.83777,-2.32359 2.05981,-2.456 0.0586,-0.0349 0.21244,0.0944 0.62624,0.52662 l 0.54858,0.57292 -0.0286,-0.78992 c -0.0157,-0.43445 -0.0802,-1.78522 -0.14329,-3.0017 -0.13776,-2.655498 -0.16587,-6.716766 -0.0556,-8.030865 0.0926,-1.102666 0.30248,-2.873309 0.43316,-3.653322 0.29783,-1.777729 0.78475,-3.898601 0.87447,-3.808892 0.0124,0.0124 -0.0603,0.624143 -0.16153,1.359443 -0.40432,2.936792 -0.53021,4.851295 -0.48895,7.435657 0.0308,1.927522 0.0721,2.529701 0.53354,7.777539 0.15663,1.78127 0.31036,3.55389 0.34162,3.93915 0.0684,0.8431 0.12103,0.99098 0.86427,2.42912 0.51815,1.0026 0.53043,1.02065 0.61168,0.89964 0.0456,-0.0679 0.87359,-1.55919 1.83996,-3.31391 3.59187,-6.522057 5.39229,-9.545495 7.60721,-12.774787 1.15143,-1.678756 2.1883,-3.104878 2.22833,-3.064856 0.0516,0.05165 -0.14421,0.412388 -0.99207,1.827312 -2.7805,4.640132 -5.05665,9.088641 -8.99961,17.588921 l -0.96489,2.08012 -0.002,0.47396 c -10e-4,0.26067 0.03,0.83415 0.0692,1.27439 0.15762,1.77138 -0.18287,3.55822 -0.99143,5.20296 -0.34737,0.7066 -0.87022,1.52 -1.3967,2.17286 -0.50778,0.62966 -1.42068,1.56763 -1.81701,1.86692 -0.58029,0.43819 -0.80969,0.79477 -1.20564,1.87402 -0.12006,0.32725 -0.5116,1.3581 -0.87009,2.29078 -0.63145,1.64294 -0.78843,2.090732 -0.73292,2.090732 0.0146,0 0.27929,-0.23492 0.5882,-0.522062 1.2496,-1.16151 2.57403,-2.16319 4.01098,-3.03354 0.5825,-0.35283 1.74784,-0.97328 1.82801,-0.97328 0.0303,0 0.13226,0.18694 0.22659,0.41542 l 0.17152,0.41541 0.29563,-0.0975 c 0.1626,-0.0536 1.42118,-0.46758 2.79685,-0.91989 1.37568,-0.45231 2.51063,-0.83179 2.52213,-0.84328 0.0115,-0.0115 -0.15742,-0.28806 -0.37538,-0.61459 -1.25425,-1.87895 -1.83936,-3.53809 -1.91797,-5.43852 -0.051,-1.2337 0.0978,-2.23997 0.5123,-3.46343 0.82728,-2.44195 2.47036,-4.65318 5.14995,-6.93072 l 0.75634,-0.64286 0.12912,0.17337 c 0.071,0.0954 0.26122,0.40787 0.42265,0.69448 0.90186,1.60116 1.55061,3.39989 1.86333,5.16632 0.14132,0.79823 0.19345,2.35857 0.10439,3.12461 -0.0749,0.64424 -0.30486,1.61096 -0.52509,2.20736 -0.0882,0.23895 -0.14002,0.43446 -0.11509,0.43446 0.0249,0 0.42357,-0.41726 0.88587,-0.92725 l 0.84052,-0.92724 -0.20481,-0.63943 c -0.43251,-1.35029 -0.82684,-3.17822 -1.01839,-4.7207 -0.097,-0.78084 -0.16198,-3.17154 -0.10245,-3.76723 l 0.0419,-0.41935 0.1968,1.36919 c 0.36259,2.52259 0.76567,4.17706 1.58772,6.51686 0.30941,0.88069 0.40249,1.09272 0.4797,1.09272 0.15236,0 0.28179,-0.0906 0.39784,-0.27832 0.0988,-0.1598 0.14194,-0.18005 0.51815,-0.24306 0.38412,-0.0643 2.6217,-0.80394 2.71939,-0.89886 0.0245,-0.0238 -0.0994,-0.46637 -0.27538,-0.98351 -0.59185,-1.73961 -0.78963,-2.78355 -0.83163,-4.38957 -0.0423,-1.61698 0.14722,-2.8401 0.6731,-4.34457 0.14174,-0.4055 0.25772,-0.79974 0.25772,-0.87609 1e-5,-0.0764 -0.0939,-0.52662 -0.20856,-1.00057 -0.22352,-0.92346 -0.42611,-2.048348 -0.52982,-2.941861 -0.0353,-0.30412 -0.082,-0.585985 -0.10369,-0.626368 -0.0258,-0.04792 -0.0813,0.05271 -0.1598,0.289638 -1.10201,3.326301 -3.40445,5.442441 -6.871,6.315001 -0.73648,0.18538 -1.85234,0.36171 -2.10501,0.33265 -0.1533,-0.0176 -0.15699,-0.0257 -0.27185,-0.59716 -0.5206,-2.59009 -0.0753,-4.932928 1.31349,-6.910373 0.43062,-0.613144 1.75868,-1.936247 2.44659,-2.437461 1.37265,-1.000096 3.102,-1.861523 4.83082,-2.406322 0.72302,-0.22784 0.92952,-0.325964 1.00463,-0.477371 0.046,-0.09275 0.0673,0.218725 0.0955,1.395528 0.0842,3.522412 0.34238,5.561863 0.96047,7.588259 0.12828,0.42055 0.14428,0.44681 0.2135,0.35033 0.0412,-0.0574 0.26369,-0.39665 0.49452,-0.75397 0.52857,-0.818242 0.93041,-1.346908 1.61207,-2.120834 1.79456,-2.037477 4.52681,-4.070657 7.32569,-5.451349 0.65115,-0.321212 0.82003,-0.385184 0.88172,-0.333989 0.23803,0.197547 0.95006,3.140795 1.1653,4.816893 0.13193,1.027376 0.13077,3.346519 -0.002,4.318229 -0.25226,1.84386 -0.65524,3.21573 -1.36128,4.63421 -0.61147,1.22853 -1.36837,2.24958 -2.44332,3.29607 -0.70768,0.68893 -1.21012,1.08951 -2.12636,1.69524 -0.67742,0.44784 -0.70006,0.46842 -0.48031,0.43653 0.38899,-0.0564 0.751,-0.27749 1.43269,-0.8748 0.58357,-0.51134 1.14192,-0.89307 1.30627,-0.89307 0.0339,0 0.0585,0.0967 0.0585,0.23029 0,0.20637 -0.0652,0.32811 -0.62723,1.17172 -0.34497,0.51778 -0.76866,1.13562 -0.94152,1.37296 -0.49989,0.68638 -0.80156,1.34499 -1.40634,3.07045 -0.7893,2.25191 -1.36457,3.77807 -1.66586,4.4195 -0.35311,0.75175 -0.87926,1.52338 -1.40089,2.05449 -0.29953,0.30496 -0.45196,0.50373 -0.48483,0.63222 -0.0264,0.10307 -0.16897,1.24195 -0.31689,2.53083 -0.14792,1.28889 -0.37691,3.216392 -0.50887,4.283332 -0.13197,1.06693 -0.22544,1.99761 -0.20774,2.06817 0.0177,0.0706 0.31237,0.42122 0.65478,0.77924 1.11277,1.16345 1.95681,2.30239 2.66845,3.60073 0.19395,0.35388 0.37343,0.64341 0.39883,0.64341 0.0519,0 0.10546,-0.0469 1.46538,-1.28375 0.53746,-0.48883 1.28528,-1.15472 1.6618,-1.47976 0.37654,-0.32504 0.89222,-0.80932 1.14598,-1.07618 1.21512,-1.27788 2.25413,-3.40269 3.06554,-6.269132 0.26753,-0.94508 0.2528,-0.99301 -0.14342,-0.46673 -0.95165,1.264052 -2.32547,2.415022 -3.98492,3.338512 l -0.54875,0.30539 -0.20748,-0.23364 c -0.53356,-0.60087 -1.34321,-2.01522 -1.69036,-2.952862 -1.1266,-3.04284 -0.6769,-6.047 1.36269,-9.10328 0.66433,-0.99547 1.05587,-1.45951 2.15505,-2.55408 0.86262,-0.85898 2.09941,-1.92504 2.16111,-1.86276 0.11238,0.11343 0.68289,1.10244 0.92266,1.59945 0.71193,1.47578 1.18104,2.95481 1.50325,4.73953 0.0348,0.19249 0.0625,0.11534 0.32195,-0.89524 0.83389,-3.24805 1.64514,-5.76058 2.44214,-7.56352 0.14449,-0.32683 0.26269,-0.60124 0.26269,-0.60979 0,-0.009 -0.0889,-0.0169 -0.19748,-0.0186 -0.10861,-0.002 -0.29227,-0.0198 -0.40812,-0.0403 l -0.21065,-0.0373 -0.0625,-0.39412 c -0.0905,-0.57064 -0.084,-1.91314 0.0125,-2.56286 0.32676,-2.20059 1.50215,-3.96678 3.52568,-5.29781 0.63331,-0.41657 1.86767,-1.02326 2.63872,-1.29693 1.10117,-0.39085 2.8417,-0.79457 3.42553,-0.79457 0.1986,0 0.23092,0.0165 0.26016,0.13304 0.0666,0.26541 -0.11328,1.70968 -0.32451,2.60535 -0.20326,0.86189 -0.51886,1.75422 -0.88471,2.50142 -1.34169,2.74025 -3.382,4.32377 -6.3607,4.93665 -0.69349,0.14268 -0.84223,0.21902 -0.9896,0.5079 -0.12562,0.24623 -0.56507,1.56071 -0.84704,2.53366 -0.50828,1.75384 -0.65799,2.50035 -1.73728,8.66281 -0.80724,4.60913 -0.94401,5.24445 -1.50007,6.968052 -0.13379,0.4147 -0.23589,0.803 -0.2269,0.8629 0.0134,0.0896 0.58396,-0.34657 3.22447,-2.465502 l 3.20811,-2.5744 -0.25907,-0.0349 c -0.14249,-0.0192 -0.49909,-0.037 -0.79246,-0.0395 l -0.53339,-0.005 -0.0657,-0.15872 c -0.0943,-0.22767 -0.041,-2.36394 0.0787,-3.15895 0.31985,-2.1228 1.14092,-4.04677 2.38224,-5.58211 0.46907,-0.58019 1.48731,-1.55044 2.13002,-2.02967 2.07217,-1.54505 4.84637,-2.65285 7.96909,-3.18225 1.33283,-0.22595 3.47969,-0.40842 3.58462,-0.30467 0.0652,0.0644 -0.0727,1.01137 -0.27416,1.88295 -0.80596,3.48681 -2.24814,6.33162 -4.27664,8.43595 -2.08904,2.16714 -4.45816,3.38554 -7.60229,3.90972 -0.4388,0.0732 -0.86108,0.17485 -0.98181,0.23645 -0.24588,0.12544 -5.18055,4.527032 -7.11597,6.347252 -1.55073,1.45844 -4.21642,4.05654 -4.17592,4.07004 0.0923,0.0308 5.72215,-1.146 5.8344,-1.21955 0.0628,-0.0411 0.23983,-0.29595 0.39338,-0.56621 1.10586,-1.94645 2.7306,-3.51897 5.12844,-4.96361 0.90349,-0.54433 3.18635,-1.600312 3.30334,-1.528012 0.0578,0.0357 0.29663,1.079962 0.39069,1.708342 0.10855,0.72515 0.18033,2.15649 0.14392,2.86988 l -0.029,0.56781 0.20542,-0.0375 c 0.53155,-0.097 1.80761,-0.46967 2.00548,-0.58563 0.22197,-0.13008 0.3253,-0.29822 0.62882,-1.02326 0.0544,-0.1299 0.24789,-0.45928 0.43002,-0.73197 1.06097,-1.58845 2.5725,-2.895122 4.41176,-3.813832 2.35825,-1.17795 5.12941,-1.86078 7.98799,-1.96829 l 0.88208,-0.0332 v 0.12671 c -6.2e-4,0.46957 -0.40775,2.15959 -0.79169,3.28639 -0.80579,2.364832 -1.9155,4.236192 -3.44657,5.812112 -1.10399,1.13633 -1.92975,1.74724 -3.2418,2.39835 -1.18709,0.5891 -2.38886,0.95312 -3.86831,1.17174 -0.85487,0.12631 -3.47871,0.14075 -3.55361,0.0196 -0.17698,-0.28639 -0.10669,-1.52651 0.18476,-3.25985 0.10046,-0.59752 0.1827,-1.10418 0.18274,-1.1259 5e-5,-0.0217 -0.0476,-0.0395 -0.10601,-0.0395 -0.10465,0 -1.62445,0.4955 -1.80233,0.58762 -0.1457,0.0755 -0.23764,0.30573 -0.35633,0.89257 -0.44111,2.18087 -1.60059,4.11747 -3.29102,5.49673 -1.02729,0.83819 -2.06409,1.37507 -3.75557,1.94475 -0.63634,0.21431 -1.21284,0.41884 -1.28112,0.45451 -0.15653,0.0818 -0.42925,0.31937 -2.41234,2.10169 -1.46359,1.31541 -1.75275,1.58736 -1.72131,1.61881 0.006,0.006 0.29379,-0.0963 0.64007,-0.22678 2.53123,-0.95387 5.54236,-1.38846 8.5566,-1.23494 0.65169,0.0332 1.32166,0.0746 1.48882,0.0921 0.27849,0.0291 0.30112,0.041 0.27035,0.14259 -0.40942,1.35175 -1.30089,3.30415 -2.0784,4.55191 -0.92918,1.49116 -2.41751,3.16277 -3.67852,4.13152 l -0.22029,0.16924 1.02946,0.0143 c 0.82825,0.0115 1.02946,0.0283 1.02946,0.0862 0,0.052 -0.15,0.0899 -0.53978,0.13643 -0.29688,0.0355 -0.92928,0.12033 -1.40535,0.18859 l -0.86556,0.1241 -0.8196,0.39216 c -1.31905,0.63113 -2.15954,0.91017 -3.45267,1.14629 -0.55174,0.10074 -0.83914,0.11661 -2.26445,0.12505 -1.72985,0.0102 -1.93875,0.0305 -3.04217,0.29508 -0.76314,0.183 -0.71791,0.15138 -1.37576,0.96172 -0.23973,0.2953 -0.39576,0.53125 -0.36863,0.55746 0.0259,0.025 0.52098,0.29852 1.10026,0.6078 0.57928,0.30929 1.27836,0.68875 1.55351,0.84324 0.58687,0.32951 0.79981,0.38038 1.19508,0.28555 0.32695,-0.0784 0.38183,-0.0443 0.38483,0.23943 0.004,0.34583 0.19436,0.54851 1.07763,1.14535 1.27795,0.86354 2.69874,1.93165 3.50385,2.6341 0.41711,0.36393 0.44666,0.34999 0.21913,-0.10335 -0.30317,-0.60404 -0.62832,-1.38766 -0.82528,-1.98892 -0.17426,-0.53199 -0.42425,-1.5959 -0.38436,-1.63579 0.0118,-0.0117 0.30459,-0.10266 0.65076,-0.202 2.71158,-0.77821 5.64775,-0.5426 8.125,0.65198 1.10739,0.53401 1.96516,1.10749 2.88377,1.92799 0.37315,0.3333 0.37378,0.3336 0.43169,0.20651 0.0319,-0.07 0.27138,-1.02348 0.53219,-2.11884 0.26081,-1.09535 0.54643,-2.28718 0.6347,-2.6485 0.0883,-0.36132 0.16051,-0.72647 0.16051,-0.81144 0,-0.0998 -0.1134,-0.32954 -0.31995,-0.6484 -0.4258,-0.65729 -0.93113,-1.64079 -1.22846,-2.39088 -0.13314,-0.3359 -0.24208,-0.63269 -0.24208,-0.65953 0,-0.0626 1.29683,-0.54842 1.94847,-0.72986 0.59711,-0.16625 0.84484,-0.31656 1.01958,-0.61861 0.0716,-0.12375 0.28498,-0.75819 0.47422,-1.40988 0.18924,-0.65168 0.61664,-2.04901 0.94979,-3.10516 0.33315,-1.05615 0.59852,-1.92748 0.58972,-1.93628 -0.009,-0.009 -0.36904,-0.11087 -0.80055,-0.22684 -1.14086,-0.30659 -2.39074,-0.73615 -2.39074,-0.82164 0,-0.18326 0.85638,-1.24443 1.70781,-2.11619 1.21181,-1.24074 2.37222,-2.10757 3.75934,-2.80822 l 0.76592,-0.38687 0.30616,-0.42129 c 0.16839,-0.23171 0.49808,-0.69381 0.73266,-1.0269 0.35222,-0.50016 0.42,-0.57351 0.38928,-0.42129 -0.0205,0.10137 -0.23595,0.50175 -0.47886,0.88972 -0.40891,0.65311 -0.48337,0.79545 -0.41611,0.79545 0.0141,0 0.23324,-0.0604 0.48711,-0.1343 0.68493,-0.19927 1.58285,-0.34061 2.38373,-0.37521 1.60212,-0.0692 3.22363,0.27796 4.96753,1.06357 0.59856,0.26965 0.66688,0.31381 0.63989,0.41368 -0.0708,0.26211 -0.55022,1.14827 -0.92693,1.71347 -1.5925,2.38926 -3.7617,3.69831 -6.73428,4.06395 -0.45859,0.0564 -0.91057,0.0534 -3.49907,-0.0231 l -0.26038,-0.008 -0.22762,0.73726 c -0.51889,1.68074 -1.28668,4.63183 -1.41535,5.4401 -0.0348,0.21878 -0.0317,0.22562 0.0896,0.198 0.76744,-0.17475 2.9564,-0.17569 4.02261,-0.002 0.15768,0.0257 0.16102,0.0208 1.76416,-2.61541 1.75644,-2.88828 1.85952,-3.04731 1.97513,-3.04731 0.1146,0 0.10436,0.0256 -0.17981,0.45049 -0.25277,0.37793 -0.51131,0.9564 -0.45334,1.01436 0.016,0.016 0.11758,-0.0551 0.22566,-0.15803 0.10809,-0.10295 0.40979,-0.36011 0.67047,-0.57146 1.5653,-1.2691 3.51676,-2.21757 5.38003,-2.61487 0.62037,-0.13228 0.77359,-0.1443 1.86092,-0.14605 0.94517,-0.002 1.28077,0.0175 1.65883,0.0943 1.07232,0.21769 2.36885,0.74087 3.344,1.34939 0.51374,0.32059 0.89524,0.61707 0.89524,0.69572 0,0.0298 -0.15791,0.25925 -0.35092,0.50993 -1.50689,1.95713 -3.19507,3.07571 -5.35507,3.54825 -0.47059,0.10296 -0.68842,0.11697 -1.8246,0.11737 -1.41823,5.2e-4 -1.74306,-0.0389 -3.03327,-0.36758 -0.94211,-0.24002 -1.9792,-0.64166 -3.06489,-1.18696 l -0.91101,-0.45757 -0.15558,0.27004 c -0.39874,0.69215 -1.63498,3.20843 -1.59532,3.24717 0.0245,0.024 0.36453,0.1489 0.75554,0.27762 1.17315,0.38618 2.10929,0.84634 3.18969,1.56789 0.29166,0.19478 0.61948,0.40195 0.72848,0.46037 0.109,0.0584 0.24952,0.17487 0.31229,0.25878 0.0628,0.0839 0.33923,0.35608 0.61438,0.60484 0.93039,0.84112 1.97954,2.07631 2.76345,3.25345 0.56297,0.84537 1.23705,2.05476 1.27475,2.28704 0.0347,0.21372 0.0749,0.19829 -1.16814,0.44808 -1.40512,0.28235 -2.29309,0.37607 -3.87164,0.40864 -2.96569,0.0612 -5.07659,-0.31662 -7.2917,-1.30504 -0.31909,-0.14238 -0.59935,-0.25888 -0.62282,-0.25888 -0.0728,0 -0.60644,0.52912 -0.9808,0.9725 -0.68739,0.8141 -1.42491,1.99944 -2.07262,3.33113 l -0.26184,0.53833 0.42128,0.69921 c 0.55726,0.92491 0.85564,1.48797 1.11005,2.09474 0.32966,0.78623 0.35757,0.70188 -0.26656,0.80564 -0.77198,0.12835 -1.37548,0.18861 -2.27776,0.22741 -0.83629,0.036 -1.06416,0.0909 -1.20824,0.29123 -0.0819,0.11395 -1.76713,3.15259 -1.76713,3.18641 0,0.0462 0.26402,-0.10731 0.92157,-0.53567 4.14033,-2.69719 8.34501,-4.95606 12.89959,-6.92999 0.72273,-0.31324 1.32165,-0.56192 1.33093,-0.55264 0.057,0.057 -0.0841,0.20758 -0.29406,0.31399 -0.3667,0.18586 -3.52594,1.96554 -4.66804,2.62964 -2.71941,1.58126 -5.59645,3.43906 -7.87289,5.08379 -1.79824,1.29923 -3.67832,2.79043 -4.11438,3.26336 -0.15557,0.16871 -0.50706,0.68447 -0.78109,1.14614 -2.01905,3.4015 -4.07865,6.64269 -6.00465,9.44953 -0.68739,1.00176 -1.04688,1.57984 -0.98248,1.57984 0.0284,0 3.94532,-2.42277 4.00143,-2.47507 0.0244,-0.0228 -0.0384,-0.34604 -0.13944,-0.71845 -0.21659,-0.79786 -0.34545,-1.3879 -0.36489,-1.67073 -0.0137,-0.19931 -0.009,-0.20528 0.22298,-0.27533 0.31133,-0.0941 1.1468,-0.26105 1.86948,-0.37363 0.4444,-0.0692 0.96551,-0.0922 2.23811,-0.0985 l 1.65884,-0.008 2.01306,-1.1001 c 1.10717,-0.60506 2.00768,-1.1176 2.00113,-1.13898 -0.007,-0.0214 -0.25358,-0.25836 -0.54893,-0.52662 -1.01452,-0.92146 -1.82132,-1.90645 -2.49753,-3.04918 -0.40809,-0.68963 -0.88221,-1.66029 -0.90219,-1.84706 -0.0111,-0.10351 0.0572,-0.15504 0.48741,-0.36775 2.10403,-1.04032 4.35213,-1.58025 6.58267,-1.58098 3.43603,-0.001 6.39238,1.2558 9.40007,3.9965 0.66714,0.60792 1.17896,1.16147 1.86623,2.01843 0.75496,0.94135 1.95172,2.75731 1.95172,2.96153 0,0.0889 -0.0728,0.11498 -1.05322,0.37682 -3.39246,0.90606 -7.1457,1.04329 -10.13561,0.3706 -1.27612,-0.28711 -2.71193,-0.85471 -3.83688,-1.51678 l -0.50156,-0.29519 -1.61312,1.00825 c -1.95378,1.22116 -1.92863,1.15502 -0.46098,1.21198 0.54268,0.0211 1.24736,0.065 1.56596,0.0976 1.9434,0.19893 4.3138,0.81063 5.90092,1.52276 0.39042,0.17519 0.73316,0.31851 0.76164,0.31851 0.0285,0 0.0518,0.0216 0.0518,0.0481 0,0.0282 -0.06,0.0296 -0.14482,0.004 -0.51077,-0.15757 -2.40828,-0.65216 -2.93588,-0.76525 -1.37942,-0.29569 -3.44032,-0.55039 -3.84266,-0.47492 l -0.19546,0.0367 0.57087,0.37904 c 0.96652,0.64172 1.43624,1.02498 2.23351,1.82231 0.80052,0.80063 1.48476,1.66189 2.10178,2.64558 0.45065,0.71844 1.12346,2.06239 1.45887,2.91407 0.28303,0.71867 0.68502,2.00848 0.63999,2.0535 -0.0671,0.0671 -2.12662,0.1158 -3.11313,0.0736 -2.89963,-0.12419 -5.2895,-0.68473 -7.48967,-1.7567 -2.0468,-0.99725 -3.48161,-2.29162 -4.7887,-4.31996 -0.16799,-0.26068 -0.31251,-0.48183 -0.32117,-0.49146 -0.0541,-0.0601 -5.09809,3.49563 -5.06939,3.57359 0.009,0.0233 0.29997,0.35378 0.64755,0.73438 0.62171,0.68082 1.55544,1.86942 1.55149,1.97499 -10e-4,0.0297 -0.34258,0.28829 -0.75882,0.57475 -0.41624,0.28646 -0.82412,0.57753 -0.90639,0.64682 l -0.1496,0.12598 0.97424,-0.0393 c 1.39008,-0.0561 4.32494,-0.0389 5.52945,0.0323 2.83274,0.1676 4.6986,0.43965 6.54139,0.95377 0.99032,0.27629 1.15988,0.3422 1.3026,0.50634 l 0.11985,0.13785 -0.12447,-0.0285 c -0.0685,-0.0157 -0.29035,-0.079 -0.4931,-0.14057 -1.16619,-0.35431 -2.93766,-0.50019 -6.0824,-0.50088 -2.86486,-6.2e-4 -4.94633,0.12598 -7.79389,0.47406 -3.80808,0.4655 -6.37789,1.02014 -9.93819,2.14492 l -0.90676,0.28646 -1.0074,0.80859 c -0.55407,0.44473 -0.98158,0.8172 -0.95004,0.82771 0.0315,0.0105 0.43082,-0.10334 0.88726,-0.25302 1.56399,-0.51286 3.03143,-0.84051 4.51621,-1.00836 0.7527,-0.0851 2.63185,-0.0845 3.37032,0.001 1.90309,0.2206 3.7868,0.81872 5.50823,1.74898 1.75671,0.94934 3.6988,2.56671 5.0695,4.22187 0.28179,0.34027 0.57643,0.65097 0.65474,0.69044 0.0871,0.0439 0.42886,0.0853 0.87966,0.10656 0.40549,0.0191 0.8202,0.0542 0.92157,0.0779 0.15823,0.0371 0.11724,0.0485 -0.28963,0.0808 -0.26067,0.0206 -0.65557,0.054 -0.87755,0.0742 l -0.4036,0.0366 0.49819,0.73725 c 0.74057,1.09596 1.29589,2.04315 1.81144,3.08971 0.25354,0.51469 0.48547,1.00604 0.51539,1.09188 l 0.0544,0.15606 -0.45684,0.10513 c -0.56578,0.13021 -1.60754,0.2956 -2.51064,0.39859 -3.93387,0.44861 -7.80526,0.0784 -10.95388,-1.04753 -0.8705,-0.31128 -2.43441,-1.08118 -3.07243,-1.51252 -0.77891,-0.52659 -0.78192,-0.52807 -1.12943,-0.5549 -0.25204,-0.0195 -0.47116,0.0114 -0.95866,0.13514 -0.34756,0.0882 -1.17698,0.28086 -1.84315,0.42811 -1.3164,0.29098 -1.55351,0.35527 -1.55351,0.42123 0,0.0238 0.12442,0.0725 0.27647,0.10804 0.4553,0.10657 2.22738,0.70164 2.98854,1.00354 1.46676,0.58179 3.44164,1.6522 4.68686,2.54034 1.22675,0.87497 2.98441,2.4397 2.87005,2.55503 -0.0353,0.0356 -0.20024,-0.0557 -0.50028,-0.27684 -0.2462,-0.18147 -0.66091,-0.46736 -0.92158,-0.63531 l -0.47395,-0.30537 0.49086,0.51348 c 1.19078,1.24565 2.05675,2.4467 2.7424,3.80356 0.29456,0.58292 0.31518,0.6718 0.17341,0.74767 -0.1174,0.0628 -1.04963,0.24195 -1.82683,0.351 -0.92895,0.13033 -3.05724,0.15852 -3.97085,0.0526 -3.79591,-0.44016 -6.39423,-2.00336 -8.0033,-4.81494 -0.34414,-0.60131 -0.83056,-1.72394 -0.85828,-1.98082 -0.0165,-0.1529 -0.003,-0.16267 0.48333,-0.35939 0.616,-0.24898 1.61849,-0.53042 2.42243,-0.68006 0.51172,-0.0952 0.81088,-0.11328 1.9298,-0.11632 l 1.32419,-0.004 -0.50019,-0.19919 c -1.08202,-0.43087 -2.59776,-0.82047 -4.01768,-1.03267 -2.34241,-0.35007 -3.96645,-0.20847 -6.38486,0.55669 l -0.77643,0.24565 0.56768,0.58339 c 0.31222,0.32086 0.67613,0.72558 0.80868,0.89936 1.2138,1.59133 1.9354,3.45519 2.17138,5.60844 0.0981,0.8956 0.16024,2.30613 0.11133,2.52882 l -0.0372,0.16926 -0.31174,-0.0353 c -0.17145,-0.0194 -0.66069,-0.13089 -1.08718,-0.24776 -3.42445,-0.93837 -6.13463,-2.65117 -7.63489,-4.82519 -0.35231,-0.51054 -0.74747,-1.28178 -0.95066,-1.85544 -0.21705,-0.61277 -0.22554,-0.63194 -0.28002,-0.63194 -0.10894,0 -1.67339,0.64122 -1.72954,0.70889 -0.0335,0.0404 -0.12076,0.34176 -0.19382,0.66969 -0.23835,1.06966 -0.82179,2.70998 -1.30565,3.67082 -0.21879,0.43445 -0.26758,0.40001 0.68152,0.481 3.4836,0.29729 6.53697,1.27311 9.39578,3.00277 1.86775,1.13005 3.49698,2.76324 4.2392,4.24952 0.18562,0.37168 0.31154,0.7513 0.24923,0.7513 -0.0199,0 -0.18982,-0.2192 -0.37754,-0.48712 -0.4417,-0.63041 -1.61589,-1.81441 -2.29982,-2.31902 -2.63147,-1.94157 -6.42247,-3.30583 -10.0483,-3.61606 -0.34756,-0.0297 -1.10831,-0.0543 -1.69054,-0.0546 -1.24054,-6.2e-4 -1.25304,0.004 -1.64884,0.58031 -0.12865,0.1874 -0.51608,0.72297 -0.86097,1.19015 l -0.62707,0.84944 -0.79333,-0.84944 c -0.43633,-0.46718 -0.83295,-0.89192 -0.88136,-0.94385 -0.0844,-0.0906 -0.10395,-0.0887 -0.47926,0.0462 -0.52438,0.18847 -1.34983,0.60467 -1.86575,0.94073 -0.70701,0.46055 -1.17007,0.869 -2.16869,1.91293 -0.76858,0.80346 -0.96888,1.04326 -1.01525,1.21547 -0.0426,0.15831 -0.0366,0.93614 0.0228,2.96801 0.14303,4.88645 0.85991,32.53148 1.02662,39.59014 0.0291,1.23096 0.0662,2.52841 0.0825,2.88321 l 0.0296,0.64511 -3.59669,-0.0103 c -1.97818,-0.006 -4.81713,-0.026 -6.30876,-0.0452 z m -4.423556,-48.71511 c 0,-0.60391 0.194644,-10.73463 0.290573,-15.12316 0.09735,-4.45382 0.07582,-4.86853 -0.342851,-6.60372 -0.452153,-1.87395 -1.225921,-3.67853 -2.214698,-5.16508 -0.370971,-0.55774 -1.318771,-1.76036 -1.3578,-1.72287 -0.0096,0.009 -0.03912,0.35648 -0.06555,0.77167 -0.0998,1.56694 -0.246729,2.41732 -0.60814,3.51963 -1.194137,3.64212 -4.235559,6.33969 -8.998544,7.98118 -0.318606,0.1098 -0.586807,0.20502 -0.596005,0.21161 -0.06245,0.0447 1.58786,3.97529 2.032524,4.84092 l 0.162307,0.31596 0.06531,-0.18431 c 0.03595,-0.10137 0.237541,-0.52793 0.448047,-0.9479 0.604831,-1.20671 1.3333,-2.23415 2.306509,-3.25309 0.503087,-0.52674 1.649101,-1.53938 1.741373,-1.53872 0.07431,5.3e-4 1.356556,1.20122 1.799223,1.68478 1.838042,2.00787 2.844956,4.04971 3.150152,6.38789 0.242972,1.86154 -0.04385,3.78474 -0.87996,5.90048 l -0.270707,0.68499 0.313089,0.28704 c 0.932667,0.85505 2.839308,2.38005 2.975684,2.38005 0.02718,0 0.04945,-0.19231 0.04945,-0.42735 z m -11.522089,-2.50182 c 0.07061,-0.02 0.07919,-0.0501 0.04018,-0.14115 -0.02724,-0.0636 -0.0843,-0.28825 -0.126767,-0.49914 -0.171226,-0.85029 -0.603301,-1.4275 -1.522689,-2.03415 -0.322835,-0.21302 -0.679096,-0.46121 -0.791694,-0.55154 -0.112592,-0.0903 -0.219648,-0.16422 -0.237885,-0.16422 -0.01822,0 -0.09022,0.14363 -0.159956,0.31919 -0.151683,0.3819 -0.693178,1.30416 -1.011759,1.72323 -0.125852,0.16555 -0.477654,0.55852 -0.781773,0.87326 l -0.552946,0.57225 2.52775,-0.0361 c 1.390262,-0.0199 2.568141,-0.0476 2.617508,-0.0616 z m 26.326015,-2.72005 0.9803,-0.93455 -0.23444,-0.64456 c -1.32863,-3.65289 -0.96581,-7.05046 1.08106,-10.12362 0.6683,-1.00338 1.49375,-1.93054 2.6956,-3.02776 l 0.45581,-0.41612 0.47001,0.37709 c 0.97136,0.77934 2.0211,1.96065 2.85811,3.21632 0.43773,0.65669 0.62468,1.00006 1.08695,1.99643 0.19821,0.42721 0.37572,0.77675 0.39447,0.77675 0.0369,0 2.52895,-2.03997 2.72954,-2.23432 l 0.12171,-0.11794 -0.43709,-0.28522 c -1.34815,-0.87974 -2.50687,-2.07347 -3.31834,-3.41858 -0.68763,-1.13984 -1.20235,-2.53257 -1.51719,-4.1052 -0.15758,-0.78711 -0.33831,-2.05137 -0.29888,-2.0908 0.0373,-0.0373 0.92329,-0.33029 1.42808,-0.47225 0.70939,-0.19948 1.82312,-0.42654 2.58961,-0.52794 0.94752,-0.12534 2.78109,-0.12539 3.60117,0 2.5245,0.38572 4.50084,1.35256 6.50743,3.18348 l 0.63568,0.58004 2.43215,-1.77244 c 2.38679,-1.73938 2.42945,-1.77362 2.28703,-1.83576 -0.0798,-0.0348 -0.45319,-0.1965 -0.82972,-0.35927 -2.50829,-1.08436 -5.06487,-2.95048 -6.9603,-5.08053 -0.45026,-0.50599 -0.48418,-0.55893 -0.39951,-0.62347 0.15696,-0.11964 1.42662,-0.71711 2.12,-0.99763 1.94118,-0.78534 3.87962,-1.30281 5.89808,-1.57454 1.01235,-0.13628 3.55504,-0.13644 4.42356,-5.2e-4 1.35397,0.21225 2.43637,0.52253 3.62458,1.03902 l 0.70188,0.30509 1.02657,-1.37379 c 3.40509,-4.55676 6.84002,-9.68217 10.72005,-15.99582 0.86609,-1.40932 1.22917,-2.04373 1.19025,-2.07971 -0.009,-0.009 -0.58545,-0.12686 -1.28058,-0.26303 -1.80005,-0.35262 -2.87904,-0.73817 -4.06738,-1.45336 -0.33769,-0.20324 -0.46106,-0.25378 -0.50662,-0.20755 -0.0453,0.046 -0.0349,0.0798 0.042,0.13658 0.0562,0.0415 0.0753,0.0754 0.0425,0.0754 -0.0328,0 -0.0907,-0.0421 -0.12855,-0.0936 -0.0914,-0.12432 -0.54033,-0.4857 -0.60333,-0.4857 -0.17705,0 -1.04605,1.20614 -2.04883,2.84372 -2.38007,3.88673 -3.35953,5.00543 -5.14423,5.87552 -1.4239,0.69419 -3.91354,1.12341 -6.54368,1.12815 -0.6631,0.001 -0.76416,0.0139 -1.00476,0.12589 -0.14714,0.0685 -0.92916,0.57508 -1.73784,1.12571 -1.70218,1.15902 -2.62999,1.75737 -3.73475,2.40854 -1.46942,0.86611 -2.32609,1.50126 -3.22619,2.39192 -0.50319,0.49794 -1.08106,1.16507 -1.04253,1.2036 0.012,0.012 0.38496,-0.0863 0.82875,-0.21849 2.72122,-0.81059 4.51439,-1.12081 8.05689,-1.39384 0.97274,-0.075 1.27701,-0.116 1.38505,-0.18679 0.0825,-0.054 0.21072,-0.24931 0.31734,-0.48328 0.8084,-1.77391 2.27328,-3.40195 3.99882,-4.44423 1.50579,-0.90954 3.41486,-1.53146 5.61195,-1.82823 1.25681,-0.16976 4.42669,-0.12944 5.573,0.0709 0.21325,0.0373 0.21216,0.0448 -0.13259,0.91262 -0.51481,1.29593 -1.30246,2.70974 -2.10462,3.77772 -2.97043,3.95479 -6.93389,5.54501 -11.6563,4.67674 -0.86511,-0.15906 -1.93013,-0.44379 -2.05664,-0.54982 -0.0987,-0.0828 -0.0977,-0.0962 0.0552,-0.69002 0.0858,-0.33309 0.15647,-0.62293 0.1571,-0.6441 0.001,-0.0453 -0.20253,-0.0227 -1.36804,0.15178 -3.61889,0.54171 -7.06521,1.56113 -9.7687,2.88959 -1.49927,0.73673 -1.5708,0.79307 -2.87331,2.26327 -3.21412,3.6279 -6.3259,7.37685 -8.85149,10.66394 -1.15132,1.49844 -1.73411,2.28482 -4.19152,5.65579 -1.6846,2.31084 -2.08468,2.89172 -2.15258,3.12527 -0.0743,0.25545 -0.077,0.49543 -0.0247,2.19077 0.0323,1.04714 0.10581,3.60659 0.16338,5.68767 0.0576,2.08108 0.11889,3.8068 0.13628,3.83493 0.0174,0.0281 0.21281,-0.1227 0.43428,-0.33519 0.22146,-0.21248 0.84379,-0.80688 1.38296,-1.32089 z m -48.059626,-4.64542 c 1.564044,-0.30648 2.879264,-0.57004 2.92271,-0.5857 0.103616,-0.0373 -0.06416,-0.10689 -1.146873,-0.47554 -1.024933,-0.34898 -0.947234,-0.35636 -1.783034,0.1693 -0.676446,0.42544 -1.671698,0.92848 -2.44156,1.23406 -0.51804,0.20562 -0.740692,0.31489 -0.500288,0.2455 0.05791,-0.0167 1.385,-0.28115 2.949045,-0.58762 z m 10.79296,-1.59967 c -0.311833,-0.28349 -3.241204,-2.07084 -5.443854,-3.32155 l -0.759618,-0.43132 -0.117133,0.14818 c -0.06443,0.0815 -0.555352,0.68138 -1.090943,1.33307 l -0.973812,1.18488 0.191727,0.0679 c 0.43177,0.15282 2.147548,0.54752 3.017706,0.6942 0.85564,0.14423 2.073301,0.28999 2.782464,0.33307 0.661712,0.0402 2.440062,0.034 2.393463,-0.008 z m 4.403166,-1.04724 c -0.981705,-1.38862 -6.426,-8.77908 -6.461472,-8.77126 -0.02507,0.006 -0.480515,0.17813 -1.012182,0.38356 -1.519467,0.58711 -2.896449,0.97784 -3.017929,0.85636 -0.109439,-0.10944 -0.15931,-1.00893 -0.133541,-2.40851 0.02706,-1.46853 0.09945,-2.15094 0.348996,-3.28888 0.138038,-0.62945 0.136663,-0.77378 -0.0096,-1.00815 -0.149787,-0.24002 -1.872438,-2.51026 -1.933336,-2.54791 -0.02494,-0.0154 -0.09983,0.061 -0.166413,0.16977 -0.191173,0.31241 -0.820921,1.15873 -1.205967,1.62071 -0.945238,1.13409 -2.47266,2.09559 -4.226977,2.66083 -1.134147,0.36542 -1.149846,0.37153 -1.128418,0.4392 0.02917,0.092 6.29677,4.7047 6.62075,4.87256 0.159302,0.0825 0.834685,0.38002 1.500851,0.66107 0.666171,0.28105 1.310349,0.56831 1.431518,0.63835 l 0.220301,0.12735 -0.108089,0.32006 c -0.06033,0.17864 -0.08786,0.33884 -0.06232,0.36255 0.02519,0.0234 0.981829,0.53954 2.125896,1.14704 2.174773,1.15481 3.733027,2.00696 6.029733,3.29742 0.753063,0.42312 1.376635,0.76962 1.385728,0.77 0.0091,5.2e-4 -0.0798,-0.13558 -0.197543,-0.30212 z m 51.12971,-0.72162 c 3.30347,-0.83298 5.81721,-1.38156 9.06518,-1.97833 1.11171,-0.20426 2.06697,-0.38993 2.12279,-0.4126 0.0898,-0.0365 0.0569,-0.0892 -0.28634,-0.45888 -1.54405,-1.66286 -2.53957,-3.2863 -3.34866,-5.46079 -0.1289,-0.34644 -0.25155,-0.74784 -0.27257,-0.89202 l -0.0382,-0.26214 -0.86891,0.65689 c -0.47791,0.36129 -0.90781,0.70113 -0.95535,0.7552 -0.0815,0.0926 -0.0654,0.13322 0.2777,0.70392 0.75855,1.26155 1.55779,3.04708 1.96378,4.38713 0.10361,0.34201 0.18839,0.64155 0.18839,0.66566 0,0.0608 -0.68114,0.23591 -1.52718,0.39257 -2.66011,0.49255 -4.90885,0.56543 -7.3093,0.23687 -0.44308,-0.0606 -0.86357,-0.0957 -0.9344,-0.0779 -0.15161,0.0381 -1.97124,1.64061 -1.91179,1.68373 0.01,0.007 0.23144,0.076 0.49211,0.15281 0.26067,0.0768 0.60429,0.18593 0.76359,0.24251 0.47903,0.17012 0.68194,0.14379 2.57917,-0.33459 z m -48.341952,-0.96016 c 0,-0.0198 -0.09877,-0.35164 -0.219474,-0.73727 -0.173907,-0.55557 -0.238967,-0.70114 -0.313375,-0.70114 -0.102018,0 -0.640769,0.10766 -0.669984,0.13389 -0.02718,0.0244 1.112639,1.34063 1.160899,1.34063 0.02307,0 0.04192,-0.0162 0.04192,-0.0361 z m -3.342295,-4.03199 c 0.01934,-0.0652 0.268946,-0.84126 0.554716,-1.72466 0.642449,-1.98598 0.637754,-1.96519 0.544748,-2.40967 -0.06027,-0.28818 -0.748316,-2.97209 -0.843324,-3.28972 -0.02071,-0.0692 -0.218373,0.10221 -0.827123,0.71734 -0.845179,0.85402 -1.517539,1.4124 -2.492663,2.0701 -0.393369,0.26532 -0.581382,0.42252 -0.556547,0.46536 0.07607,0.1312 3.514412,4.28447 3.549106,4.28705 0.01978,0.001 0.05175,-0.0506 0.07109,-0.1158 z m -18.223592,-3.41149 c -0.04702,-0.076 -2.816655,-2.28561 -2.959463,-2.36099 -0.125243,-0.0661 -3.649494,-0.15687 -3.590524,-0.0925 0.0329,0.0359 6.465808,2.49925 6.540956,2.50469 0.02345,0.002 0.02749,-0.0213 0.009,-0.0512 z m -7.758088,-4.53032 c 0.226142,-0.7948 0.411543,-1.46057 0.412004,-1.47949 4.72e-4,-0.0189 -0.733191,-0.67791 -1.630343,-1.46444 l -1.631169,-1.43005 -0.396211,0.34555 c -1.402472,1.22314 -3.093507,2.12912 -5.121317,2.74378 -0.329988,0.10003 -0.616375,0.18324 -0.636416,0.18492 -0.04565,0.004 1.367249,0.43385 5.36136,1.6317 1.723348,0.51685 3.155308,0.93373 3.18214,0.92642 0.02681,-0.007 0.233805,-0.66358 0.459952,-1.45839 z m 57.866467,-4.58269 c 1.18901,-1.09162 3.87964,-3.80384 5.01106,-5.05125 1.91453,-2.11083 3.66473,-4.20377 5.39458,-6.45103 0.73016,-0.94855 0.74838,-0.97745 0.83472,-1.32423 0.10637,-0.42717 0.40812,-2.90486 0.38797,-3.18565 l -0.0165,-0.22965 -0.32779,0.47395 c -1.70789,2.46948 -4.38531,4.4217 -7.82944,5.70877 -0.40259,0.15045 -0.75867,0.26329 -0.7913,0.25077 -0.18693,-0.0717 -1.10001,-2.04693 -1.50541,-3.25656 l -0.22368,-0.66735 -0.11551,0.14074 c -0.11685,0.14235 -1.29757,2.00681 -1.82329,2.87913 l -0.28563,0.47395 0.009,1.68517 c 0.0104,1.85305 0.21066,9.0245 0.25843,9.2549 0.0241,0.11599 0.0473,0.13494 0.118,0.0961 0.0485,-0.0266 0.45537,-0.3856 0.9043,-0.79777 z m 13.79905,-6.22476 1.96878,-1.98976 -0.34016,0.12637 c -1.3968,0.51892 -1.70448,0.64195 -1.78918,0.7154 -0.13751,0.11925 -2.5638,3.69434 -2.63258,3.87907 -0.0442,0.11851 0.0441,0.0509 0.38352,-0.2937 0.24246,-0.24619 1.32679,-1.34301 2.40962,-2.43738 z m -31.686768,2.68752 c -0.123427,-0.1373 -2.899722,-3.91117 -4.213088,-5.72693 -3.077547,-4.25477 -5.615708,-8.16384 -8.582461,-13.21802 l -0.417309,-0.71093 h -0.418503 -0.418496 l -0.03825,-0.30142 c -0.07379,-0.58199 -0.273487,-0.78428 -1.049128,-1.06271 -0.271739,-0.0975 -0.633766,-0.23952 -0.804507,-0.3155 l -0.310433,-0.13814 0.03141,1.04054 c 0.01729,0.57229 0.0687,1.27752 0.114259,1.56715 0.284769,1.81051 0.974508,3.77077 2.160709,6.14076 0.968724,1.93547 1.238336,2.30581 1.82225,2.50303 0.839027,0.28338 3.206553,1.70103 3.206553,1.92006 0,0.0314 -0.177733,0.30389 -0.394961,0.60547 -0.217229,0.3016 -0.393524,0.56602 -0.391764,0.5876 0.0019,0.0216 0.315757,0.31627 0.697768,0.65484 1.342929,1.19027 2.316834,1.95701 3.717228,2.92655 2.333093,1.61525 4.887874,3.40516 5.02509,3.52061 0.08205,0.069 0.198886,0.12553 0.259635,0.12553 h 0.110465 z M 44.492783,157.4388 c 0,-0.0221 -0.326834,-0.36642 -0.726305,-0.76512 l -0.726304,-0.72492 -0.212191,0.0749 c -0.283296,0.1 -0.703478,0.31508 -0.854938,0.43773 l -0.122636,0.0993 1.281694,0.45484 c 1.375925,0.48829 1.36068,0.48355 1.36068,0.4233 z m 54.532352,-2.50386 c -0.136501,-0.47104 -0.851797,-1.94328 -2.435522,-5.01286 -0.883039,-1.7115 -1.214022,-2.20701 -2.391982,-3.58097 -1.228403,-1.4328 -2.355042,-2.4749 -5.390238,-4.98575 -2.205841,-1.82477 -2.238489,-1.85109 -2.264115,-1.82547 -0.04926,0.0493 0.207084,0.44552 1.009159,1.55992 3.173607,4.4094 6.506977,8.60941 10.227999,12.88721 1.065573,1.22501 1.341865,1.52104 1.362328,1.45964 0.0081,-0.0245 -0.04478,-0.25028 -0.117629,-0.50172 z m 29.921485,-3.61168 c 0.44901,-0.17755 5.50434,-2.53371 5.96586,-2.78054 0.89402,-0.47815 2.1331,-1.40371 2.70242,-2.01863 0.36632,-0.39566 0.59941,-0.80186 0.90576,-1.57851 0.10854,-0.27516 0.26221,-0.63062 0.34151,-0.78993 0.27708,-0.55667 0.3041,-0.52255 -0.3869,-0.48852 -0.70238,0.0346 -0.62648,0.10851 -0.74246,-0.72307 -0.23162,-1.66078 -0.11564,-3.14552 0.34939,-4.47286 0.21629,-0.61735 0.71244,-1.56112 1.13664,-2.1621 0.43596,-0.61763 1.51096,-1.70772 2.14467,-2.17477 0.643,-0.4739 1.57542,-1.02204 2.88837,-1.69798 l 1.09788,-0.56521 -0.14998,-0.0947 c -0.26867,-0.16958 -2.58372,-1.15481 -2.7135,-1.15481 -0.1519,0 -0.31332,0.0834 -1.07011,0.55294 -0.76497,0.47461 -1.92716,1.05102 -2.86635,1.42162 -0.41795,0.16492 -0.81263,0.33441 -0.87708,0.37664 -0.16005,0.10487 -0.28313,0.36414 -1.09628,2.30933 -1.33315,3.18919 -2.38614,5.48472 -3.93747,8.58382 -0.57995,1.15855 -1.16227,2.30788 -1.29407,2.55408 -0.72702,1.35806 -1.36493,2.52062 -1.93604,3.52832 -0.78651,1.38773 -0.83161,1.47451 -0.76641,1.47451 0.0286,0 0.1655,-0.0448 0.30415,-0.0997 z m -29.133044,-4.87683 c 0.04485,-2.11436 0.140578,-6.39178 0.212734,-9.50539 l 0.13119,-5.6611 -0.13503,-0.80432 c -0.349954,-2.0846 -1.065941,-4.32396 -2.053741,-6.42347 -0.166934,-0.3548 -0.317772,-0.64467 -0.335194,-0.64416 -0.01741,5.3e-4 -0.339753,0.42908 -0.716285,0.95236 -0.376525,0.52328 -0.708634,0.97138 -0.73801,0.99577 -0.03147,0.0262 -0.301813,-0.0968 -0.658266,-0.29928 -0.332669,-0.18899 -0.632118,-0.35477 -0.665444,-0.3684 -0.08093,-0.0331 -0.0808,-0.034 -0.412146,3.02561 -0.18491,1.70751 -0.270707,2.68958 -0.241517,2.76473 0.02488,0.0641 0.345836,0.48387 0.713206,0.93281 1.230281,1.50343 1.961338,2.74781 2.391739,4.07116 0.90326,2.77727 0.658888,5.5206 -0.755917,8.48617 -0.415499,0.87091 -0.411636,0.93465 0.121791,2.0112 0.227541,0.45922 0.584809,1.14019 0.793939,1.51328 0.568514,1.01423 1.892267,3.24509 2.050481,3.45558 l 0.138541,0.18432 0.03819,-0.4213 c 0.02102,-0.2317 0.07489,-2.15121 0.119739,-4.26557 z m 25.019364,2.35368 c 0.56553,-0.72656 2.89858,-4.18291 4.11827,-6.10108 1.91765,-3.01586 5.51084,-9.24643 5.79024,-10.04025 0.0598,-0.16987 0.0702,-0.36394 0.0453,-0.84787 -0.0177,-0.34517 -0.0408,-0.63608 -0.0511,-0.64647 -0.0542,-0.0541 -4.0923,1.4724 -5.69483,2.1528 -1.0197,0.43294 -3.61897,1.68418 -3.82983,1.8436 -0.0855,0.0647 -0.0819,0.11845 0.0613,0.91129 0.25282,1.39965 0.32778,2.10258 0.35755,3.35297 0.0441,1.85047 -0.13449,3.23156 -0.6116,4.73055 -0.45795,1.43882 -0.49558,1.7268 -0.44885,3.43616 0.0255,0.93347 0.0552,1.35513 0.0951,1.35313 0.0319,-0.002 0.10775,-0.0668 0.1685,-0.14483 z m -47.435256,-0.0895 c 0.0171,-0.0171 0.0083,-0.064 -0.01972,-0.10427 -0.02793,-0.0402 -0.190328,-0.27766 -0.36087,-0.52763 -0.170542,-0.24997 -0.367382,-0.49204 -0.437423,-0.53793 -0.07005,-0.0459 -0.410685,-0.13769 -0.756982,-0.20397 -0.580549,-0.11114 -1.41182,-0.36742 -2.089666,-0.64427 -0.152057,-0.0621 -0.276472,-0.10385 -0.276472,-0.0928 0,0.0474 3.197963,2.03401 3.449326,2.14275 0.106894,0.0463 0.434905,0.025 0.491779,-0.0319 z m -6.546335,-0.55022 c -0.04385,-0.0709 -2.891425,-1.96739 -3.549386,-2.36385 -0.300394,-0.18101 -0.557405,-0.31787 -0.571132,-0.30414 -0.052,0.052 -0.85477,2.42251 -0.829082,2.4482 0.0148,0.0148 1.039407,0.0784 2.276866,0.14118 2.797504,0.14205 2.710364,0.13949 2.672734,0.0786 z m 2.307435,-1.76888 c -0.01717,-0.0447 -0.04248,-0.07 -0.05629,-0.0562 -0.01381,0.0138 -0.0095,0.0504 0.0096,0.0813 0.05194,0.084 0.08228,0.0677 0.04665,-0.0251 z m 38.662476,-2.05153 c 1.11952,-1.51004 1.19703,-1.63883 1.50546,-2.50142 0.41269,-1.15416 1.25648,-2.67273 2.24709,-4.04402 0.42862,-0.59333 0.43044,-0.59726 0.79542,-1.7115 0.74757,-2.28226 1.0091,-3.29774 2.94585,-11.43844 0.934,-3.92586 0.92606,-3.88993 0.84873,-3.84214 -0.03,0.0185 -0.40147,0.45219 -0.8255,0.96369 -3.02011,3.64302 -5.84533,6.55361 -8.55641,8.81494 -0.31538,0.26305 -0.60998,0.54899 -0.65467,0.63541 -0.0644,0.12451 -0.0745,0.26225 -0.0489,0.66324 0.0178,0.27835 0.11558,3.5157 0.21729,7.1941 0.1017,3.6784 0.19751,6.74517 0.21291,6.81504 0.0275,0.12472 0.0297,0.1252 0.12377,0.0263 0.0527,-0.0554 0.58771,-0.76424 1.18896,-1.57523 z m -36.416206,-4.43452 c 0,-0.0806 -0.278842,-2.16403 -0.345009,-2.57785 -0.01692,-0.10578 -0.098,-0.22812 -0.222596,-0.33583 -0.178224,-0.15408 -2.670414,-1.57696 -2.763233,-1.57763 -0.02171,0 -0.0395,0.0187 -0.0395,0.042 0,0.0233 0.310078,0.56238 0.68906,1.19805 0.378988,0.63567 0.855162,1.45506 1.058178,1.82087 0.419411,0.75577 0.693302,1.05954 1.202858,1.33408 0.393101,0.2118 0.420238,0.21802 0.420238,0.0963 z m -22.495743,-2.86069 c -0.01,-0.0299 -1.710336,-1.01329 -3.77863,-2.18545 l -3.76055,-2.1312 -0.346514,0.33184 c -0.970745,0.92962 -2.393519,1.83705 -3.95148,2.52021 l -0.181968,0.0798 0.708584,0.11228 c 1.672662,0.26503 2.379667,0.34922 8.713122,1.0376 1.216479,0.13221 2.235478,0.2495 2.264444,0.26063 0.113867,0.0438 0.350066,0.0255 0.332992,-0.0257 z m 98.815329,-0.24192 c 0.94857,-0.0176 1.72467,-0.0495 1.72467,-0.071 0,-0.17158 -5.14118,-3.47769 -5.23374,-3.36563 -0.009,0.0111 -0.141,0.75476 -0.29301,1.65264 -0.15201,0.89787 -0.28877,1.68701 -0.3039,1.75364 l -0.0275,0.12113 1.20441,-0.0294 c 0.66244,-0.0162 1.98052,-0.0438 2.92909,-0.0614 z m 14.35876,-3.78449 c 0.61237,-1.05685 1.1596,-1.99987 1.21607,-2.09559 l 0.10269,-0.17402 -0.51224,-0.45093 c -0.71172,-0.62654 -0.85614,-0.74544 -0.87791,-0.72277 -0.0104,0.0108 -0.25823,1.16905 -0.5507,2.5738 -0.29247,1.40474 -0.54407,2.6074 -0.55912,2.67257 -0.0151,0.0652 -0.006,0.11849 0.0202,0.11849 0.0262,0 0.54862,-0.8647 1.16098,-1.92155 z m -88.774069,1.4081 c 0.219511,-0.44574 0.17795,-0.65115 -0.32574,-1.61012 -0.314308,-0.59841 -0.450032,-0.81136 -0.481392,-0.75531 -0.07199,0.12863 0.103498,2.19664 0.19873,2.34198 0.06892,0.10518 0.33336,0.26459 0.450418,0.27153 0.01916,0.001 0.09023,-0.11051 0.157984,-0.24808 z m -2.53489,-1.07956 c 6.22e-4,-0.1231 0.02351,-1.03998 0.05069,-2.03752 0.05766,-2.11994 0.06052,-2.10376 -0.42823,-2.4631 -2.743926,-2.01749 -4.055917,-3.25916 -5.352491,-5.06559 -0.195515,-0.2724 -0.414322,-0.53865 -0.486236,-0.59167 -0.105439,-0.0777 -2.628517,-0.8451 -2.670296,-0.81214 -0.0339,0.0267 0.36174,1.63211 0.474532,1.92541 0.07239,0.18827 0.728892,1.56273 1.458885,3.05437 0.729987,1.49163 1.388763,2.84024 1.463937,2.99691 0.07518,0.15667 0.210877,0.3581 0.301557,0.44762 0.200876,0.19832 4.947341,2.74932 5.146837,2.76618 0.02171,0.002 0.04012,-0.0974 0.0408,-0.22047 z m 45.962439,-0.41426 c 0.68579,-0.50399 0.85649,-0.67396 2.45292,-2.44263 2.30818,-2.55719 2.77589,-3.08814 2.83545,-3.21887 0.0417,-0.0916 0.0386,-0.30757 -0.0115,-0.79926 -0.10139,-0.99441 -0.047,-2.32977 0.12906,-3.16617 0.5361,-2.54744 1.93147,-5.12138 4.02032,-7.41605 l 0.39666,-0.43573 0.12856,0.11911 c 0.44536,0.4126 1.62735,2.05459 2.22155,3.08612 l 0.28337,0.49192 0.0987,-0.12329 c 0.0971,-0.12139 0.77585,-1.483 1.4459,-2.90073 0.32003,-0.67714 0.34064,-0.74314 0.32088,-1.0269 -0.0116,-0.16679 -0.0851,-0.51432 -0.16337,-0.7723 -0.16844,-0.55543 -0.3252,-1.30694 -0.40168,-1.92567 -0.0705,-0.5705 -0.0712,-2.25071 -10e-4,-2.958 0.1671,-1.68823 0.60016,-3.4207 1.27495,-5.10058 0.2831,-0.70477 0.98356,-2.17133 1.11802,-2.34079 0.0788,-0.0994 0.10172,-0.0889 0.709,0.32417 l 0.62754,0.42686 0.0554,-0.24518 c 0.27767,-1.22936 0.30661,-2.798422 0.0817,-4.431772 -0.0458,-0.33309 -0.10652,-0.71384 -0.13482,-0.84612 l -0.0514,-0.2405 -1.03777,0.27885 c -0.57077,0.15337 -1.41692,0.3648 -1.88035,0.46984 -0.93719,0.21242 -1.20608,0.33588 -1.38436,0.63563 -0.0663,0.11142 -0.57867,1.12764 -1.13867,2.258262 -2.87329,5.8011 -5.74226,10.67247 -9.05518,15.37526 -0.62328,0.88476 -1.0291,1.6495 -1.18768,2.23811 -0.0585,0.21723 -0.14179,0.70303 -0.18501,1.07956 -0.0432,0.37653 -0.12693,0.98082 -0.18601,1.34286 -0.12381,0.75874 -0.12324,0.75169 -0.0583,0.72849 0.0271,-0.01 0.58589,-0.83512 1.24193,-1.83438 1.74072,-2.65144 2.29358,-3.39981 5.44649,-7.3726 2.99245,-3.77058 4.17518,-5.45758 5.05989,-7.21718 0.11359,-0.22592 0.22951,-0.42496 0.25759,-0.44232 0.0818,-0.0505 -0.13959,0.68028 -0.39739,1.31184 -0.30635,0.75051 -1.03948,2.17288 -1.60246,3.10899 -0.54258,0.90217 -1.50108,2.3508 -3.04883,4.60787 -3.76598,5.49191 -5.18706,7.96008 -6.61252,11.48489 -0.92722,2.29279 -1.75857,5.09861 -2.15678,7.27926 -0.1464,0.80166 -0.16061,0.98389 -0.0767,0.98389 0.0309,0 0.28564,-0.16864 0.56611,-0.37476 z m 6.47386,-1.32379 c 0.4417,-0.17882 0.80309,-0.34553 0.80309,-0.37046 0,-0.0561 -0.54167,-0.82437 -0.58242,-0.82611 -0.0488,-0.002 -1.20807,1.46674 -1.20807,1.53065 0,0.0691 -0.0511,0.0864 0.9874,-0.33408 z m 7.22778,-2.37069 0.23698,-0.0692 0.0322,-1.63027 c 0.03,-1.52262 0.0411,-1.66505 0.16789,-2.15689 0.47042,-1.825 1.61389,-3.27852 3.68423,-4.68319 0.25317,-0.17177 0.45873,-0.3258 0.4568,-0.3423 -0.006,-0.0491 -1.4737,-1.34654 -1.52352,-1.34654 -0.0407,0 -2.01969,2.13547 -2.71923,2.93427 -0.14868,0.16977 -0.28408,0.37744 -0.30088,0.46148 -0.0168,0.084 0.004,0.34875 0.046,0.58822 0.3655,2.07888 0.0808,3.9879 -0.87442,5.86434 l -0.35678,0.70081 0.45691,-0.12582 c 0.2513,-0.0692 0.56355,-0.15693 0.69388,-0.19496 z m -68.007878,-0.5518 c -0.170611,-0.48164 -2.378659,-5.7642 -2.558302,-6.12052 -0.695137,-1.37877 -1.554938,-2.35637 -4.739672,-5.38903 -0.854433,-0.81363 -1.74837,-1.66638 -1.986528,-1.89499 -0.238152,-0.22862 -0.460574,-0.40648 -0.494267,-0.39524 -0.03371,0.0112 -0.129995,0.36197 -0.214013,0.77943 -0.136557,0.6785 -0.449714,1.75333 -0.565354,1.94043 -0.03483,0.0564 -0.297185,0.003 -1.314392,-0.26809 -0.698975,-0.18619 -1.270567,-0.32469 -1.2702,-0.30777 6.22e-4,0.0353 2.078793,2.59533 3.20677,3.9506 0.417278,0.50136 0.916061,1.06863 1.108415,1.26059 0.728763,0.72729 3.259845,2.74528 5.215865,4.15851 1.548739,1.11896 3.528251,2.46555 3.644475,2.4792 0.02046,0.002 0.0056,-0.0845 -0.03278,-0.19312 z m -10.559256,-6.1445 -1.334364,-1.33513 0.146018,-0.19145 0.146023,-0.19144 -0.646908,-0.85435 c -0.355807,-0.46989 -1.199045,-1.57713 -1.873869,-2.46052 -1.226393,-1.60544 -1.227208,-1.60636 -1.795995,-2.02366 -0.673766,-0.49432 -1.606545,-1.41954 -2.031243,-2.01479 -0.388069,-0.54392 -0.758126,-1.18756 -1.008923,-1.75484 -0.500002,-1.13096 -0.504828,-1.13826 -1.689344,-2.55355 -0.630264,-0.75306 -1.277713,-1.52853 -1.438764,-1.72329 -0.161057,-0.19474 -0.301097,-0.34581 -0.311204,-0.33571 -0.01014,0.0101 0.07708,0.25799 0.193754,0.55085 0.587354,1.47428 0.858595,2.87654 0.867005,4.48223 l 0.005,0.92028 -0.210647,0.0378 c -0.391279,0.0701 -2.655903,0.0474 -3.344323,-0.0335 -2.660661,-0.31291 -4.756255,-1.23207 -6.749253,-2.96032 -0.280049,-0.24285 -0.652419,-0.6007 -0.827482,-0.79522 -0.175065,-0.19452 -0.319166,-0.32133 -0.32023,-0.2818 -0.0031,0.11118 1.46533,1.57777 2.300128,2.29744 0.411697,0.35492 1.027837,0.86113 1.369195,1.12491 1.224652,0.94633 1.502462,1.12977 5.854967,3.86606 1.01472,0.63793 2.684024,1.55695 9.296718,5.11829 4.454922,2.39923 4.668866,2.51129 4.71434,2.46913 0.01319,-0.0122 -0.576519,-0.623 -1.310424,-1.35732 z m 55.580424,-1.56316 c 4.10487,-3.68675 7.76769,-7.73186 11.77271,-13.00145 1.1168,-1.46943 1.55394,-2.09794 1.84996,-2.6598 0.11777,-0.22355 0.28429,-0.44336 0.4238,-0.55943 0.1264,-0.10516 0.28751,-0.29996 0.35802,-0.43288 l 0.1282,-0.24167 -0.19607,-0.2008 -0.19608,-0.2008 0.16885,-0.20891 c 0.0929,-0.1149 0.6323,-0.73026 1.19871,-1.36746 1.31771,-1.48239 1.51915,-1.72131 1.77933,-2.110432 0.18662,-0.27909 1.38258,-2.19906 2.12281,-3.4079 0.2828,-0.46184 0.47063,-0.92154 0.6266,-1.53356 0.10222,-0.4011 0.14294,-0.92632 0.0718,-0.92632 -0.077,0 -1.474,0.39446 -2.35072,0.66376 -2.1506,0.6606 -4.18463,1.46311 -6.40187,2.52582 l -0.86139,0.41286 0.0282,0.21308 c 0.0155,0.11719 0.0878,0.4856 0.16065,0.81869 0.31164,1.424992 0.37066,2.012942 0.37263,3.712632 0.002,1.75759 -0.046,2.21626 -0.3641,3.47565 -0.9118,3.61003 -3.39838,6.36445 -7.21835,7.99587 -0.93367,0.39875 -2.10149,0.7948 -2.21507,0.75121 -0.10932,-0.0419 -0.64169,-1.17184 -0.93296,-1.98008 -0.13046,-0.36205 -0.32684,-0.9843 -0.43639,-1.38278 -0.10955,-0.39847 -0.21635,-0.70654 -0.23735,-0.68459 -0.0366,0.0383 -0.33385,0.97271 -1.16014,3.64721 l -0.38234,1.23754 0.007,0.78993 c 0.009,0.96002 0.21392,5.68262 0.25553,5.88456 0.0239,0.11619 0.047,0.13494 0.11781,0.0958 0.0485,-0.0268 0.72789,-0.62336 1.50991,-1.32573 z m 37.41595,-2.63996 c 1.65192,-1.51455 3.48781,-3.02859 5.25589,-4.33447 0.009,-0.007 -0.0912,-0.62473 -0.22222,-1.37378 -0.32504,-1.85777 -0.36621,-2.2156 -0.32288,-2.80599 0.0343,-0.46733 0.2069,-1.6542 0.27045,-1.85977 0.0241,-0.0781 0.002,-0.0868 -0.14621,-0.0594 -0.35042,0.0644 -3.4695,0.81073 -4.0257,0.96326 -1.8155,0.49785 -3.52899,1.29622 -4.50466,2.09888 -0.51737,0.42563 -0.53054,0.48539 -0.33335,1.51237 0.0445,0.23171 0.0954,0.78861 0.11305,1.23755 0.0491,1.24466 -0.0797,2.19247 -0.48469,3.56888 -0.0988,0.33578 -0.17025,0.6199 -0.15876,0.63139 0.0115,0.0115 0.31328,-0.12071 0.67065,-0.29378 0.75582,-0.36603 1.17413,-0.71133 1.56783,-1.29421 0.51146,-0.75722 1.06308,-1.31047 1.21375,-1.21735 0.0295,0.0182 0.0536,0.1521 0.0536,0.2975 0,0.28197 -0.2812,1.09695 -0.81515,2.3625 -0.46438,1.10066 -0.60671,1.67726 -0.60671,2.45791 v 0.44752 l 0.93474,-0.89186 c 0.5141,-0.49052 1.20726,-1.14172 1.54034,-1.44711 z M 87.361681,98.340048 c -0.341545,-1.78119 -0.700742,-3.65916 -0.798207,-4.17326 -0.09746,-0.51411 -0.19493,-0.93474 -0.216594,-0.93474 -0.02164,0 -0.111167,0.14218 -0.198892,0.31596 -0.08772,0.17379 -0.168745,0.31597 -0.18004,0.31597 -0.01132,0 -0.359788,-0.10924 -0.774422,-0.24275 -1.722352,-0.5546 -3.213724,-1.31329 -4.7921,-2.43782 -0.101041,-0.072 -0.100873,-0.0667 0.007,0.21064 0.170512,0.43872 0.553157,1.20348 0.748734,1.49643 0.09695,0.14522 0.946637,1.24716 1.888187,2.44876 0.941555,1.20159 2.337116,2.99043 3.101263,3.9752 1.488262,1.917972 1.796443,2.303812 1.820701,2.279562 0.0085,-0.008 -0.264021,-1.47276 -0.605565,-3.253952 z m -2.952093,2.842762 c -0.11419,-0.22384 -2.39276,-3.503012 -2.465221,-3.547792 -0.02332,-0.0144 0.03707,0.25023 0.134193,0.58807 0.187821,0.65341 0.435788,1.806722 0.435788,2.026872 0,0.0728 0.04149,0.18033 0.09216,0.23894 0.06692,0.0774 1.786168,0.89739 1.896875,0.90473 0.0078,5.2e-4 -0.0344,-0.0944 -0.0938,-0.21082 z M 57.58227,94.519818 c 0.01972,-0.13168 0.02712,-0.24804 0.01642,-0.25858 -0.06316,-0.062 -3.952843,-2.35323 -3.96848,-2.33759 -0.04397,0.044 1.291547,2.50097 1.403747,2.58249 0.093,0.0676 0.352796,0.10752 1.070698,0.16467 0.521348,0.0415 1.059024,0.0784 1.194822,0.0819 l 0.246916,0.006 z m 72.41915,-0.34221 c 0.86188,-0.14611 1.60604,-0.27725 1.65369,-0.29143 0.0505,-0.015 0.10126,-0.10746 0.12169,-0.22147 0.0979,-0.54672 0.48881,-2.00943 0.68906,-2.57862 0.12483,-0.3548 0.20692,-0.6451 0.18243,-0.6451 -0.0245,0 -0.25308,0.27845 -0.50796,0.61877 -0.53448,0.71366 -1.47641,1.67957 -2.12969,2.18391 -0.24857,0.19191 -0.72845,0.5292 -1.06639,0.74955 -0.33795,0.22035 -0.61445,0.41175 -0.61445,0.42533 0,0.0412 0.0503,0.0339 1.67162,-0.24094 z m -57.176779,-8.45492 c 0,-0.0421 -0.857239,-1.08268 -0.96687,-1.17367 -0.07662,-0.0636 -0.08641,-0.0546 -0.08682,0.0796 -2.61e-4,0.0832 -0.01524,0.27406 -0.03321,0.42414 l -0.03278,0.27288 0.204391,0.0896 c 0.762082,0.33417 0.91532,0.38563 0.91532,0.30742 z M 62.187028,194.36351 c -1.564822,-0.13578 -2.446711,-0.27931 -3.580976,-0.58279 -0.814098,-0.21783 -1.10589,-0.32293 -1.10589,-0.39834 0,-0.0877 0.667589,-1.07883 1.179073,-1.75052 0.562909,-0.73922 1.548035,-1.77763 2.21759,-2.33753 0.983601,-0.82251 2.398308,-1.63392 3.533151,-2.02644 2.181571,-0.75455 4.626621,-0.6584 6.999807,0.27527 0.592204,0.23299 1.552842,0.67696 1.552842,0.71766 0,0.0147 -0.140375,0.30678 -0.31195,0.64905 -1.571192,3.13433 -4.297298,4.98335 -7.929563,5.37834 -0.567431,0.0617 -2.167228,0.10887 -2.554084,0.0753 z M 168.37882,175.40235 c -0.0869,-0.0101 -0.38311,-0.0437 -0.65826,-0.0745 -2.81849,-0.31586 -5.4676,-1.57485 -6.88556,-3.27235 -0.70703,-0.84641 -1.14026,-1.62338 -1.49234,-2.67646 -0.21894,-0.65482 -0.41437,-1.49022 -0.41574,-1.77721 -0.001,-0.21441 0.0639,-0.2425 0.89176,-0.38591 0.79005,-0.13685 2.1214,-0.18486 2.87271,-0.10359 1.92239,0.20795 3.4142,0.85045 4.82665,2.07879 1.4411,1.25324 2.80297,3.54107 3.34971,5.62724 0.11605,0.44281 0.1253,0.52851 0.0614,0.56895 -0.0696,0.044 -2.19384,0.0566 -2.55032,0.0151 z m 11.79617,-30.72581 c -2.68277,-0.24995 -4.91229,-1.51529 -6.53133,-3.70675 -0.2413,-0.32661 -0.44631,-0.66165 -0.44631,-0.72938 0,-0.0129 0.2192,-0.16488 0.48712,-0.33765 2.32684,-1.50045 4.72867,-2.00286 7.1079,-1.4868 2.18738,0.47445 4.5548,1.94414 6.28721,3.90308 0.25741,0.29106 0.50983,0.59511 0.56093,0.67567 l 0.0929,0.14645 -0.5932,0.26346 c -2.21568,0.98404 -4.86416,1.46768 -6.96524,1.27192 z M 28.961818,137.89309 c -0.0025,-0.0412 -0.04335,-0.11819 -0.09131,-0.17115 -0.04914,-0.0543 -0.06145,-0.0963 -0.02818,-0.0963 0.07653,0 0.182329,0.19805 0.149245,0.27939 -0.01692,0.0416 -0.02699,0.0375 -0.02973,-0.0119 z M 28.628527,131.798 c 0.0362,-0.0146 0.09545,-0.0146 0.131655,0 0.0362,0.0146 0.0066,0.0266 -0.06583,0.0266 -0.0724,0 -0.10203,-0.012 -0.06582,-0.0266 z M 172.82872,108.64166 c 0,-0.0111 0.0474,-0.0326 0.10539,-0.0478 0.058,-0.0152 0.0921,-0.006 0.0759,0.0202 -0.0284,0.0459 -0.18128,0.0691 -0.18128,0.0276 z M 67.347853,106.8218 c 0,-0.0273 0.02345,-0.064 0.05206,-0.0817 0.02986,-0.0185 0.03869,0.003 0.02071,0.0495 -0.03502,0.0912 -0.07275,0.10792 -0.07275,0.0322 z m 28.858468,-2.6176 c -1.198355,-0.70053 -2.049635,-1.33529 -2.917143,-2.17519 -1.902287,-1.84174 -2.958244,-3.827582 -3.387153,-6.369902 -0.149054,-0.8835 -0.132744,-3.02856 0.03129,-4.11223 0.200521,-1.32491 0.582861,-2.74778 1.063639,-3.95831 0.476845,-1.20061 1.2109,-2.67703 1.330979,-2.67703 0.06145,0 0.789127,0.54995 1.771957,1.3392 0.82762,0.66461 2.365181,2.19357 2.964234,2.94765 1.418736,1.78588 2.423909,3.82858 2.77227,5.63373 0.318586,1.65091 0.211366,3.35787 -0.314184,5.0018 -0.383845,1.200652 -0.863713,2.163152 -1.670777,3.351142 -0.593598,0.87376 -0.950251,1.31708 -1.057182,1.31406 -0.0482,-0.001 -0.312747,-0.13408 -0.587907,-0.29492 z M 35.908973,99.622348 c -0.07257,-0.0382 -0.0962,-0.0694 -0.05268,-0.0694 0.0908,4e-5 0.246157,0.088 0.209124,0.11837 -0.01362,0.0112 -0.08405,-0.0109 -0.156461,-0.049 z m 85.459577,-25.2826 c -0.40619,-0.43585 -1.16551,-1.64926 -1.55404,-2.483384 -1.0109,-2.170289 -1.22265,-4.492916 -0.61495,-6.745528 0.41936,-1.554507 1.39186,-3.372157 2.62958,-4.914804 0.81465,-1.015365 2.0087,-2.18757 3.15666,-3.098925 0.60555,-0.48074 0.55674,-0.481977 0.8702,0.02205 0.3777,0.607304 0.94172,1.772937 1.28433,2.654256 1.01043,2.599203 1.28445,5.03265 0.81931,7.276083 -0.54025,2.605718 -2.28931,4.930817 -4.97498,6.613472 -0.49196,0.30823 -1.40226,0.8216 -1.45684,0.8216 -0.0134,0 -0.085,-0.0652 -0.15927,-0.14482 z M 58.313315,71.085004 c -0.09816,-0.07864 -0.09752,-0.07962 0.01623,-0.02448 0.06517,0.03158 0.118489,0.06843 0.118489,0.0819 0,0.0403 -0.02731,0.02866 -0.134754,-0.05742 z m 74.549525,-9.954495 c 0.002,-0.06135 0.015,-0.07383 0.0318,-0.03182 0.0152,0.03802 0.0134,0.08344 -0.004,0.100935 -0.0175,0.0175 -0.03,-0.0136 -0.0277,-0.06912 z"
       id="path1147"
       inkscape:connector-curvature="0" />
  </g>
</svg>
